<?xml version="1.0" encoding="UTF-8" standalone="no"?>
<!DOCTYPE svg PUBLIC "-//W3C//DTD SVG 1.1//EN" "http://www.w3.org/Graphics/SVG/1.1/DTD/svg11.dtd">
<!-- Created with Vectornator (http://vectornator.io/) -->
<svg height="100%" stroke-miterlimit="10" style="fill-rule:nonzero;clip-rule:evenodd;stroke-linecap:round;stroke-linejoin:round;" version="1.1" viewBox="0 0 1080 810" width="100%" xml:space="preserve" xmlns="http://www.w3.org/2000/svg" xmlns:vectornator="http://vectornator.io" xmlns:xlink="http://www.w3.org/1999/xlink">
<defs/>
<clipPath id="ArtboardFrame">
<rect height="810" width="1080" x="0" y="0"/>
</clipPath>
<g clip-path="url(#ArtboardFrame)" id="Layer-1" vectornator:layerName="Layer 1">
<g opacity="1">
<path d="M830.91 236.432L817.091 246.385L771.342 182.862L785.161 172.91L830.91 236.432Z" fill="#000000" fill-rule="nonzero" opacity="1" stroke="none"/>
<path d="M680.598 145.516C674.673 145.184 668.76 145.332 662.877 145.967C639.346 148.508 616.62 157.853 594.586 173.848C577.595 186.182 564.176 200.054 554.29 215.499C544.403 230.944 538.081 247.097 535.326 263.923C532.572 280.749 533.507 297.92 538.148 315.508C542.789 333.094 551.053 350.097 562.981 366.528C575.045 383.146 588.803 396.353 604.181 406.147C619.558 415.941 635.666 422.243 652.492 424.998C669.318 427.753 686.383 426.926 703.851 422.514C721.319 418.102 738.327 409.948 754.758 398.02C766.709 389.346 777.025 379.522 785.686 368.672C794.348 357.823 801.081 346.288 806.004 334.019C810.926 321.75 813.689 308.903 814.244 295.528C814.799 282.153 813.015 268.531 808.939 254.667C807.539 249.887 805.806 245.101 803.747 240.332L743.019 284.015C746.087 290.303 747.971 296.343 748.437 302.075C748.94 308.267 748.117 314.175 746.067 319.797C744.018 325.418 740.972 330.727 736.811 335.6C732.65 340.473 727.778 344.876 722.363 348.806C713.213 355.448 704.079 359.627 694.934 361.561C685.789 363.495 676.916 363.436 668.182 361.223C659.448 359.01 651.128 354.88 643.236 348.919C635.345 342.957 628.07 335.532 621.564 326.569C614.38 316.673 609.333 306.652 606.213 296.657C603.092 286.663 601.748 277.138 602.375 267.987C603.002 258.835 605.564 250.323 610.051 242.364C614.536 234.403 620.91 227.445 629.127 221.481C639.023 214.298 649.661 210.325 661.071 209.742C672.48 209.159 684.836 212.977 698.094 221.03L734.553 161.657C716.394 151.959 698.374 146.511 680.598 145.516Z" fill="#000000" fill-rule="nonzero" opacity="1" stroke="none"/>
<path d="M677.69 279.363L783.572 196.153L802.083 219.708L696.201 302.917L677.69 279.363Z" fill="#fffffe" fill-rule="nonzero" opacity="1" stroke="none"/>
<path d="M803.988 225.878L820.906 213.699L802.045 187.506L785.131 199.686L803.988 225.878ZM669.496 306.51L705.615 312.388C706.682 312.561 707.77 312.306 708.644 311.673L817.616 233.204L802.495 212.205L700.522 285.635C698.698 286.949 696.161 286.536 694.848 284.711C693.534 282.887 693.946 280.35 695.771 279.037L797.744 205.607L782.623 184.609L673.651 263.079C672.774 263.706 672.186 264.661 672.013 265.725L666.136 301.844C665.775 304.059 667.276 306.149 669.496 306.51Z" fill="#000000" fill-rule="nonzero" opacity="1" stroke="none"/>
</g>
<g opacity="1">
<path d="M1816.35-338.03L1802.53-328.077L1756.78-391.6L1770.6-401.552L1816.35-338.03Z" fill="#000000" fill-rule="nonzero" opacity="1" stroke="none"/>
<path d="M1666.03-428.946C1660.11-429.278 1654.2-429.13 1648.31-428.495C1624.78-425.954 1602.06-416.609 1580.02-400.614C1563.03-388.28 1549.61-374.408 1539.73-358.963C1529.84-343.518 1523.52-327.364 1520.76-310.539C1518.01-293.713 1518.94-276.541 1523.58-258.954C1528.23-241.367 1536.49-224.365 1548.42-207.934C1560.48-191.316 1574.24-178.109 1589.62-168.314C1604.99-158.521 1621.1-152.219 1637.93-149.464C1654.75-146.709 1671.82-147.536 1689.29-151.947C1706.76-156.36 1723.76-164.514 1740.19-176.442C1752.14-185.116 1762.46-194.94 1771.12-205.789C1779.78-216.638 1786.52-228.174 1791.44-240.443C1796.36-252.711 1799.13-265.559 1799.68-278.933C1800.24-292.309 1798.45-305.931 1794.38-319.795C1792.98-324.575 1791.24-329.361 1789.18-334.13L1728.46-290.447C1731.52-284.159 1733.41-278.119 1733.87-272.387C1734.38-266.195 1733.55-260.287 1731.5-254.665C1729.45-249.044 1726.41-243.735 1722.25-238.862C1718.09-233.989 1713.21-229.586 1707.8-225.656C1698.65-219.014 1689.52-214.835 1680.37-212.901C1671.22-210.967 1662.35-211.026 1653.62-213.239C1644.88-215.452 1636.56-219.582 1628.67-225.543C1620.78-231.504 1613.51-238.93 1607-247.892C1599.82-257.789 1594.77-267.81 1591.65-277.805C1588.53-287.799 1587.18-297.324 1587.81-306.475C1588.44-315.626 1591-324.138 1595.49-332.098C1599.97-340.059 1606.35-347.016 1614.56-352.98C1624.46-360.164 1635.1-364.137 1646.51-364.719C1657.92-365.303 1670.27-361.485 1683.53-353.432L1719.99-412.805C1701.83-422.503 1683.81-427.951 1666.03-428.946Z" fill="#000000" fill-rule="nonzero" opacity="1" stroke="none"/>
<path d="M1663.13-295.099L1769.01-378.309L1787.52-354.754L1681.64-271.544L1663.13-295.099Z" fill="#fffffe" fill-rule="nonzero" opacity="1" stroke="none"/>
<path d="M1789.42-348.584L1806.34-360.763L1787.48-386.955L1770.57-374.776L1789.42-348.584ZM1654.93-267.952L1691.05-262.074C1692.12-261.901 1693.21-262.156 1694.08-262.788L1803.05-341.258L1787.93-362.257L1685.96-288.827C1684.13-287.513 1681.6-287.926 1680.28-289.75C1678.97-291.575 1679.38-294.111 1681.21-295.425L1783.18-368.855L1768.06-389.853L1659.09-311.383C1658.21-310.756 1657.62-309.801 1657.45-308.737L1651.57-272.618C1651.21-270.403 1652.71-268.313 1654.93-267.952Z" fill="#000000" fill-rule="nonzero" opacity="1" stroke="none"/>
</g>
<g opacity="1">
<path d="M567.566-159.281L553.747-149.328L507.998-212.851L521.817-222.803L567.566-159.281Z" fill="#000000" fill-rule="nonzero" opacity="1" stroke="none"/>
<path d="M417.254-250.197C411.329-250.529 405.415-250.381 399.532-249.746C376.002-247.205 353.276-237.86 331.242-221.865C314.25-209.531 300.832-195.659 290.945-180.214C281.058-164.769 274.737-148.615 271.982-131.79C269.227-114.964 270.163-97.7924 274.804-80.2053C279.445-62.6184 287.709-45.6162 299.637-29.1852C311.7-12.5668 325.459 0.640272 340.837 10.4345C356.214 20.2278 372.322 26.53 389.148 29.2848C405.974 32.0397 423.038 31.2128 440.507 26.8016C457.975 22.3894 474.983 14.235 491.414 2.30737C503.364-6.36731 513.681-16.1908 522.342-27.0405C531.003-37.8895 537.737-49.4247 542.66-61.6936C547.582-73.9624 550.345-86.8097 550.9-100.184C551.455-113.56 549.67-127.182 545.594-141.046C544.195-145.826 542.462-150.612 540.402-155.381L479.675-111.698C482.743-105.41 484.627-99.3702 485.093-93.6376C485.596-87.4456 484.772-81.5377 482.722-75.916C480.673-70.2946 477.628-64.986 473.466-60.1133C469.306-55.2399 464.433-50.8368 459.018-46.9068C449.869-40.2651 440.734-36.0859 431.589-34.1517C422.444-32.2178 413.572-32.2772 404.838-34.4904C396.103-36.7032 387.783-40.8332 379.892-46.7939C372-52.7554 364.726-60.1807 358.22-69.1434C351.036-79.0399 345.989-89.0611 342.868-99.0557C339.748-109.05 338.403-118.575 339.031-127.726C339.658-136.877 342.22-145.389 346.706-153.349C351.192-161.31 357.566-168.267 365.782-174.231C375.679-181.415 386.317-185.388 397.726-185.971C409.135-186.554 421.492-182.736 434.75-174.683L471.209-234.056C453.049-243.754 435.03-249.202 417.254-250.197Z" fill="#000000" fill-rule="nonzero" opacity="1" stroke="none"/>
<path d="M414.346-116.35L520.228-199.56L538.739-176.005L432.857-92.7955L414.346-116.35Z" fill="#fffffe" fill-rule="nonzero" opacity="1" stroke="none"/>
<path d="M540.644-169.835L557.562-182.014L538.701-208.206L521.787-196.027L540.644-169.835ZM406.151-89.2029L442.27-83.3253C443.338-83.1516 444.426-83.4071 445.299-84.0395L554.271-162.509L539.151-183.508L437.178-110.078C435.353-108.764 432.817-109.177 431.503-111.001C430.189-112.826 430.602-115.362 432.427-116.676L534.399-190.106L519.279-211.104L410.306-132.634C409.43-132.007 408.842-131.052 408.669-129.988L402.791-93.8692C402.431-91.6539 403.932-89.5641 406.151-89.2029Z" fill="#000000" fill-rule="nonzero" opacity="1" stroke="none"/>
</g>
<g opacity="1">
<path d="M1075.1 651.357L1061.28 661.31L1015.53 597.787L1029.35 587.835L1075.1 651.357Z" fill="#000000" fill-rule="nonzero" opacity="1" stroke="none"/>
<path d="M924.79 560.441C918.865 560.109 912.952 560.257 907.069 560.892C883.538 563.433 860.812 572.778 838.778 588.773C821.786 601.107 808.368 614.979 798.481 630.424C788.595 645.869 782.273 662.023 779.518 678.848C776.764 695.674 777.699 712.846 782.34 730.433C786.981 748.02 795.245 765.022 807.173 781.453C819.236 798.071 832.995 811.278 848.373 821.073C863.75 830.866 879.858 837.168 896.684 839.923C913.51 842.678 930.575 841.851 948.043 837.44C965.511 833.028 982.519 824.873 998.95 812.946C1010.9 804.271 1021.22 794.447 1029.88 783.598C1038.54 772.749 1045.27 761.214 1050.2 748.945C1055.12 736.676 1057.88 723.828 1058.44 710.454C1058.99 697.078 1057.21 683.456 1053.13 669.592C1051.73 664.812 1050 660.026 1047.94 655.257L987.211 698.94C990.279 705.228 992.163 711.268 992.629 717.001C993.132 723.193 992.309 729.101 990.259 734.722C988.209 740.344 985.164 745.652 981.003 750.525C976.842 755.398 971.969 759.801 966.555 763.731C957.405 770.373 948.271 774.552 939.126 776.486C929.98 778.42 921.108 778.361 912.374 776.148C903.639 773.935 895.319 769.805 887.428 763.844C879.536 757.883 872.262 750.458 865.756 741.495C858.572 731.598 853.525 721.577 850.405 711.583C847.284 701.588 845.939 692.063 846.567 682.912C847.194 673.761 849.756 665.249 854.242 657.289C858.728 649.328 865.102 642.371 873.319 636.407C883.215 629.223 893.853 625.251 905.263 624.668C916.671 624.084 929.028 627.902 942.286 635.955L978.745 576.582C960.586 566.884 942.566 561.437 924.79 560.441Z" fill="#000000" fill-rule="nonzero" opacity="1" stroke="none"/>
<path d="M921.882 694.288L1027.76 611.078L1046.28 634.633L940.393 717.843L921.882 694.288Z" fill="#fffffe" fill-rule="nonzero" opacity="1" stroke="none"/>
<path d="M1048.18 640.803L1065.1 628.624L1046.24 602.432L1029.32 614.612L1048.18 640.803ZM913.688 721.435L949.807 727.313C950.874 727.487 951.962 727.231 952.835 726.599L1061.81 648.129L1046.69 627.131L944.714 700.56C942.89 701.874 940.353 701.461 939.039 699.637C937.726 697.812 938.138 695.276 939.963 693.962L1041.94 620.532L1026.81 599.534L917.843 678.004C916.966 678.632 916.378 679.586 916.205 680.65L910.327 716.769C909.967 718.984 911.468 721.074 913.688 721.435Z" fill="#000000" fill-rule="nonzero" opacity="1" stroke="none"/>
</g>
<g opacity="1">
<path d="M931.949-130.679L918.13-120.727L872.382-184.249L886.201-194.202L931.949-130.679Z" fill="#000000" fill-rule="nonzero" opacity="1" stroke="none"/>
<path d="M781.637-221.596C775.712-221.928 769.799-221.779 763.916-221.144C740.385-218.604 717.659-209.258 695.626-193.264C678.634-180.93 665.216-167.058 655.329-151.612C645.442-136.167 639.12-120.014 636.365-103.188C633.611-86.3624 634.546-69.1909 639.187-51.6038C643.828-34.017 652.093-17.0147 664.02-0.583693C676.084 16.0347 689.842 29.2417 705.22 39.0359C720.597 48.8292 736.706 55.1315 753.531 57.8863C770.357 60.6412 787.422 59.8142 804.89 55.403C822.358 50.9909 839.366 42.8365 855.797 30.9088C867.748 22.2342 878.064 12.4107 886.725 1.56096C895.387-9.28805 902.12-20.8232 907.043-33.0921C911.965-45.3609 914.728-58.2083 915.283-71.583C915.838-84.9584 914.054-98.5805 909.978-112.444C908.578-117.225 906.846-122.011 904.786-126.78L844.058-83.0964C847.126-76.8089 849.01-70.7687 849.476-65.0361C849.98-58.8441 849.156-52.9362 847.106-47.3145C845.057-41.6932 842.011-36.3845 837.85-31.5118C833.689-26.6384 828.817-22.2353 823.402-18.3053C814.253-11.6636 805.118-7.48442 795.973-5.55026C786.828-3.61629 777.955-3.67577 769.221-5.88889C760.487-8.10178 752.167-12.2317 744.275-18.1924C736.384-24.154 729.109-31.5792 722.603-40.542C715.419-50.4384 710.372-60.4596 707.252-70.4542C704.131-80.4488 702.787-89.9735 703.414-99.1248C704.041-108.276 706.603-116.788 711.09-124.748C715.575-132.708 721.949-139.666 730.166-145.63C740.062-152.813 750.7-156.786 762.11-157.369C773.519-157.953 785.875-154.134 799.133-146.081L835.592-205.454C817.433-215.153 799.414-220.6 781.637-221.596Z" fill="#000000" fill-rule="nonzero" opacity="1" stroke="none"/>
<path d="M778.729-87.7486L884.612-170.958L903.122-147.404L797.24-64.194L778.729-87.7486Z" fill="#fffffe" fill-rule="nonzero" opacity="1" stroke="none"/>
<path d="M905.027-141.234L921.945-153.413L903.084-179.605L886.17-167.425L905.027-141.234ZM770.535-60.6015L806.654-54.7238C807.721-54.5501 808.809-54.8056 809.683-55.438L918.655-133.908L903.534-154.906L801.561-81.4766C799.737-80.1628 797.2-80.5755 795.887-82.4C794.573-84.2246 794.986-86.7609 796.81-88.0747L898.783-161.504L883.662-182.503L774.69-104.033C773.813-103.405 773.225-102.45 773.052-101.387L767.175-65.2678C766.814-63.0524 768.316-60.9626 770.535-60.6015Z" fill="#000000" fill-rule="nonzero" opacity="1" stroke="none"/>
</g>
<g opacity="1">
<path d="M1439.49 679.959L1425.67 689.911L1379.92 626.389L1393.74 616.436L1439.49 679.959Z" fill="#000000" fill-rule="nonzero" opacity="1" stroke="none"/>
<path d="M1289.17 589.042C1283.25 588.711 1277.33 588.859 1271.45 589.494C1247.92 592.034 1225.2 601.38 1203.16 617.374C1186.17 629.709 1172.75 643.58 1162.86 659.026C1152.98 674.471 1146.66 690.624 1143.9 707.45C1141.15 724.276 1142.08 741.447 1146.72 759.034C1151.36 776.621 1159.63 793.623 1171.56 810.055C1183.62 826.673 1197.38 839.88 1212.76 849.674C1228.13 859.467 1244.24 865.77 1261.07 868.525C1277.89 871.279 1294.96 870.452 1312.43 866.041C1329.89 861.629 1346.9 853.475 1363.33 841.547C1375.28 832.872 1385.6 823.049 1394.26 812.199C1402.92 801.35 1409.66 789.815 1414.58 777.546C1419.5 765.277 1422.26 752.43 1422.82 739.055C1423.37 725.68 1421.59 712.058 1417.51 698.194C1416.11 693.414 1414.38 688.628 1412.32 683.859L1351.59 727.542C1354.66 733.829 1356.55 739.869 1357.01 745.602C1357.52 751.794 1356.69 757.702 1354.64 763.324C1352.59 768.945 1349.55 774.254 1345.39 779.126C1341.23 784 1336.35 788.403 1330.94 792.333C1321.79 798.975 1312.65 803.154 1303.51 805.088C1294.36 807.022 1285.49 806.962 1276.76 804.749C1268.02 802.536 1259.7 798.407 1251.81 792.446C1243.92 786.484 1236.65 779.059 1230.14 770.096C1222.96 760.2 1217.91 750.179 1214.79 740.184C1211.67 730.189 1210.32 720.665 1210.95 711.513C1211.58 702.362 1214.14 693.85 1218.63 685.89C1223.11 677.93 1229.49 670.972 1237.7 665.008C1247.6 657.825 1258.24 653.852 1269.65 653.269C1281.05 652.686 1293.41 656.504 1306.67 664.557L1343.13 605.184C1324.97 595.485 1306.95 590.038 1289.17 589.042Z" fill="#000000" fill-rule="nonzero" opacity="1" stroke="none"/>
<path d="M1286.27 722.89L1392.15 639.68L1410.66 663.235L1304.78 746.444L1286.27 722.89Z" fill="#fffffe" fill-rule="nonzero" opacity="1" stroke="none"/>
<path d="M1412.56 669.405L1429.48 657.225L1410.62 631.033L1393.71 643.213L1412.56 669.405ZM1278.07 750.037L1314.19 755.914C1315.26 756.088 1316.35 755.833 1317.22 755.2L1426.19 676.73L1411.07 655.732L1309.1 729.162C1307.27 730.475 1304.74 730.063 1303.42 728.238C1302.11 726.414 1302.52 723.877 1304.35 722.563L1406.32 649.134L1391.2 628.135L1282.23 706.605C1281.35 707.233 1280.76 708.188 1280.59 709.251L1274.71 745.37C1274.35 747.586 1275.85 749.676 1278.07 750.037Z" fill="#000000" fill-rule="nonzero" opacity="1" stroke="none"/>
</g>
<g opacity="1">
<path d="M339.909 522.428L326.09 532.38L280.341 468.857L294.16 458.905L339.909 522.428Z" fill="#000000" fill-rule="nonzero" opacity="1" stroke="none"/>
<path d="M189.597 431.511C183.672 431.179 177.759 431.328 171.876 431.963C148.345 434.503 125.619 443.848 103.585 459.843C86.5934 472.177 73.1754 486.049 63.2885 501.495C53.4016 516.939 47.0801 533.093 44.3253 549.918C41.5706 566.744 42.5058 583.916 47.1472 601.503C51.7879 619.09 60.0523 636.092 71.98 652.523C84.0435 669.142 97.8018 682.349 113.18 692.143C128.557 701.936 144.665 708.238 161.491 710.993C178.317 713.748 195.382 712.921 212.85 708.51C230.318 704.098 247.326 695.943 263.757 684.016C275.707 675.341 286.024 665.518 294.685 654.668C303.346 643.819 310.08 632.284 315.003 620.015C319.925 607.746 322.688 594.899 323.243 581.524C323.798 568.148 322.014 554.526 317.938 540.663C316.538 535.882 314.805 531.096 312.745 526.327L252.018 570.011C255.086 576.298 256.97 582.338 257.436 588.071C257.939 594.263 257.116 600.171 255.066 605.792C253.016 611.414 249.971 616.722 245.81 621.595C241.649 626.468 236.776 630.872 231.362 634.802C222.212 641.443 213.078 645.622 203.933 647.557C194.787 649.491 185.915 649.431 177.181 647.218C168.447 645.005 160.126 640.875 152.235 634.914C144.343 628.953 137.069 621.528 130.563 612.565C123.379 602.668 118.332 592.647 115.212 582.653C112.091 572.658 110.746 563.133 111.374 553.982C112.001 544.831 114.563 536.319 119.049 528.359C123.535 520.399 129.909 513.441 138.126 507.477C148.022 500.294 158.66 496.321 170.07 495.738C181.478 495.154 193.835 498.972 207.093 507.025L243.552 447.652C225.393 437.954 207.373 432.507 189.597 431.511Z" fill="#000000" fill-rule="nonzero" opacity="1" stroke="none"/>
<path d="M186.689 565.358L292.571 482.149L311.082 505.703L205.2 588.913L186.689 565.358Z" fill="#fffffe" fill-rule="nonzero" opacity="1" stroke="none"/>
<path d="M312.987 511.873L329.905 499.694L311.044 473.502L294.13 485.682L312.987 511.873ZM178.495 592.505L214.614 598.383C215.681 598.557 216.769 598.301 217.642 597.669L326.615 519.199L311.494 498.201L209.521 571.63C207.697 572.944 205.16 572.531 203.846 570.707C202.533 568.882 202.945 566.346 204.77 565.032L306.743 491.602L291.622 470.604L182.65 549.074C181.773 549.702 181.185 550.657 181.012 551.72L175.134 587.839C174.774 590.054 176.275 592.144 178.495 592.505Z" fill="#000000" fill-rule="nonzero" opacity="1" stroke="none"/>
</g>
<g opacity="1">
<path d="M1325.35-52.0342L1311.53-42.0818L1265.78-105.604L1279.6-115.557L1325.35-52.0342Z" fill="#000000" fill-rule="nonzero" opacity="1" stroke="none"/>
<path d="M1175.03-142.951C1169.11-143.283 1163.19-143.134 1157.31-142.499C1133.78-139.959 1111.06-130.613 1089.02-114.619C1072.03-102.284 1058.61-88.4127 1048.72-72.9673C1038.84-57.5223 1032.52-41.3689 1029.76-24.5433C1027.01-7.71737 1027.94 9.45415 1032.58 27.0412C1037.22 44.6281 1045.49 61.6303 1057.42 78.0614C1069.48 94.6797 1083.24 107.887 1098.62 117.681C1113.99 127.474 1130.1 133.777 1146.93 136.531C1163.75 139.286 1180.82 138.459 1198.29 134.048C1215.75 129.636 1232.76 121.482 1249.19 109.554C1261.14 100.879 1271.46 91.0558 1280.12 80.206C1288.78 69.357 1295.52 57.8219 1300.44 45.553C1305.36 33.2842 1308.12 20.4368 1308.68 7.0621C1309.23-6.31334 1307.45-19.9354 1303.37-33.7992C1301.97-38.5795 1300.24-43.3655 1298.18-48.1345L1237.45-4.45129C1240.52 1.8362 1242.41 7.87637 1242.87 13.6089C1243.38 19.801 1242.55 25.7089 1240.5 31.3305C1238.45 36.9519 1235.41 42.2605 1231.25 47.1332C1227.09 52.0067 1222.21 56.4098 1216.8 60.3398C1207.65 66.9815 1198.51 71.1607 1189.37 73.0948C1180.22 75.0288 1171.35 74.9693 1162.62 72.7562C1153.88 70.5433 1145.56 66.4134 1137.67 60.4527C1129.78 54.4911 1122.51 47.0659 1116 38.1031C1108.82 28.2067 1103.77 18.1854 1100.65 8.19087C1097.53-1.80377 1096.18-11.3284 1096.81-20.4797C1097.44-29.6309 1100-38.143 1104.49-46.1027C1108.97-54.0633 1115.35-61.0209 1123.56-66.9848C1133.46-74.1683 1144.1-78.1411 1155.51-78.724C1166.91-79.3075 1179.27-75.4893 1192.53-67.4363L1228.99-126.809C1210.83-136.508 1192.81-141.955 1175.03-142.951Z" fill="#000000" fill-rule="nonzero" opacity="1" stroke="none"/>
<path d="M1172.13-9.10352L1278.01-92.3132L1296.52-68.7586L1190.64 14.4511L1172.13-9.10352Z" fill="#fffffe" fill-rule="nonzero" opacity="1" stroke="none"/>
<path d="M1298.42-62.5885L1315.34-74.7677L1296.48-100.96L1279.57-88.7801L1298.42-62.5885ZM1163.93 18.0436L1200.05 23.9212C1201.12 24.095 1202.21 23.8394 1203.08 23.2071L1312.05-55.2628L1296.93-76.2612L1194.96-2.83151C1193.13-1.51769 1190.6-1.93043 1189.28-3.75495C1187.97-5.57948 1188.38-8.11584 1190.21-9.42966L1292.18-82.8593L1277.06-103.858L1168.09-25.3878C1167.21-24.7601 1166.62-23.8053 1166.45-22.7418L1160.57 13.3773C1160.21 15.5926 1161.71 17.6825 1163.93 18.0436Z" fill="#000000" fill-rule="nonzero" opacity="1" stroke="none"/>
</g>
<g opacity="1">
<path d="M76.5648 126.715L62.7457 136.667L16.997 73.1446L30.816 63.1922L76.5648 126.715Z" fill="#000000" fill-rule="nonzero" opacity="1" stroke="none"/>
<path d="M-73.7471 35.7983C-79.6725 35.4664-85.5858 35.6147-91.4687 36.2498C-115 38.7902-137.725 48.1355-159.759 64.1302C-176.751 76.4644-190.169 90.3362-200.056 105.782C-209.943 121.227-216.264 137.38-219.019 154.206C-221.774 171.032-220.839 188.203-216.197 205.79C-211.556 223.377-203.292 240.379-191.364 256.81C-179.301 273.429-165.543 286.636-150.164 296.43C-134.787 306.223-118.679 312.526-101.853 315.28C-85.0275 318.035-67.9628 317.208-50.4946 312.797C-33.0265 308.385-16.0183 300.231 0.412705 288.303C12.3631 279.628 22.6795 269.805 31.3408 258.955C40.0021 248.106 46.7359 236.571 51.6586 224.302C56.5807 212.033 59.3438 199.186 59.8986 185.811C60.4535 172.436 58.6692 158.814 54.5934 144.95C53.1935 140.169 51.4609 135.383 49.4011 130.614L-11.3264 174.298C-8.25849 180.585-6.37446 186.625-5.90838 192.358C-5.40502 198.55-6.22878 204.458-8.27878 210.079C-10.3279 215.701-13.3734 221.009-17.5346 225.882C-21.6954 230.756-26.5679 235.159-31.9828 239.089C-41.1321 245.73-50.2667 249.91-59.4118 251.844C-68.5569 253.778-77.4291 253.718-86.1635 251.505C-94.8978 249.292-103.218 245.162-111.109 239.202C-119.001 233.24-126.276 225.815-132.781 216.852C-139.965 206.956-145.013 196.934-148.133 186.94C-151.253 176.945-152.598 167.421-151.97 158.269C-151.343 149.118-148.781 140.606-144.295 132.646C-139.809 124.686-133.435 117.728-125.219 111.764C-115.322 104.581-104.684 100.608-93.2747 100.025C-81.8659 99.4415-69.5095 103.26-56.2513 111.313L-19.7922 51.9396C-37.9517 42.2413-55.971 36.7939-73.7471 35.7983Z" fill="#000000" fill-rule="nonzero" opacity="1" stroke="none"/>
<path d="M-76.6554 169.645L29.227 86.4357L47.7378 109.99L-58.1446 193.2L-76.6554 169.645Z" fill="#fffffe" fill-rule="nonzero" opacity="1" stroke="none"/>
<path d="M49.6429 116.16L66.5606 103.981L47.6999 77.7891L30.7856 89.9689L49.6429 116.16ZM-84.8497 196.793L-48.7306 202.67C-47.6631 202.844-46.5752 202.588-45.7019 201.956L63.2702 123.486L48.1494 102.488L-53.8232 175.917C-55.6477 177.231-58.1841 176.819-59.4979 174.994C-60.8118 173.169-60.399 170.633-58.5745 169.319L43.3982 95.8896L28.2774 74.8913L-80.6947 153.361C-81.5713 153.989-82.1592 154.944-82.3323 156.007L-88.2099 192.126C-88.5704 194.342-87.069 196.431-84.8497 196.793Z" fill="#000000" fill-rule="nonzero" opacity="1" stroke="none"/>
</g>
<g opacity="1">
<path d="M709.316 592.315L695.497 602.267L649.749 538.745L663.568 528.792L709.316 592.315Z" fill="#000000" fill-rule="nonzero" opacity="1" stroke="none"/>
<path d="M559.005 501.398C553.079 501.066 547.166 501.215 541.283 501.85C517.752 504.39 495.026 513.735 472.993 529.73C456.001 542.064 442.583 555.936 432.696 571.382C422.809 586.827 416.487 602.98 413.733 619.806C410.978 636.631 411.913 653.803 416.555 671.39C421.195 688.977 429.46 705.979 441.387 722.41C453.451 739.029 467.209 752.236 482.587 762.03C497.965 771.823 514.073 778.125 530.898 780.88C547.724 783.635 564.789 782.808 582.257 778.397C599.725 773.985 616.733 765.83 633.164 753.903C645.115 745.228 655.431 735.405 664.093 724.555C672.754 713.706 679.488 702.171 684.41 689.902C689.332 677.633 692.096 664.786 692.65 651.411C693.205 638.036 691.421 624.413 687.345 610.55C685.945 605.769 684.213 600.983 682.153 596.214L621.425 639.898C624.493 646.185 626.377 652.225 626.843 657.958C627.347 664.15 626.523 670.058 624.473 675.679C622.424 681.301 619.378 686.609 615.217 691.482C611.056 696.356 606.184 700.759 600.769 704.689C591.62 711.33 582.485 715.509 573.34 717.444C564.195 719.378 555.323 719.318 546.588 717.105C537.854 714.892 529.534 710.762 521.643 704.802C513.751 698.84 506.476 691.415 499.97 682.452C492.787 672.556 487.739 662.534 484.619 652.54C481.498 642.545 480.154 633.02 480.781 623.869C481.409 614.718 483.97 606.206 488.457 598.246C492.942 590.286 499.316 583.328 507.533 577.364C517.43 570.181 528.068 566.208 539.477 565.625C550.886 565.041 563.242 568.86 576.5 576.913L612.96 517.539C594.8 507.841 576.781 502.394 559.005 501.398Z" fill="#000000" fill-rule="nonzero" opacity="1" stroke="none"/>
<path d="M556.096 635.245L661.979 552.036L680.49 575.59L574.607 658.8L556.096 635.245Z" fill="#fffffe" fill-rule="nonzero" opacity="1" stroke="none"/>
<path d="M682.395 581.76L699.312 569.581L680.452 543.389L663.537 555.569L682.395 581.76ZM547.902 662.392L584.021 668.27C585.089 668.444 586.177 668.188 587.05 667.556L696.022 589.086L680.901 568.088L578.929 641.517C577.104 642.831 574.568 642.418 573.254 640.594C571.94 638.769 572.353 636.233 574.177 634.919L676.15 561.49L661.029 540.491L552.057 618.961C551.18 619.589 550.593 620.544 550.419 621.607L544.542 657.726C544.181 659.941 545.683 662.031 547.902 662.392Z" fill="#000000" fill-rule="nonzero" opacity="1" stroke="none"/>
</g>
<g opacity="1">
<path d="M1694.75 17.8528L1680.93 27.8052L1635.18-35.7173L1649-45.6697L1694.75 17.8528Z" fill="#000000" fill-rule="nonzero" opacity="1" stroke="none"/>
<path d="M1544.44-73.0636C1538.52-73.3955 1532.6-73.2472 1526.72-72.6121C1503.19-70.0717 1480.46-60.7264 1458.43-44.7316C1441.44-32.3974 1428.02-18.5257 1418.13-3.08024C1408.25 12.3647 1401.92 28.5181 1399.17 45.3437C1396.41 62.1697 1397.35 79.3412 1401.99 96.9283C1406.63 114.515 1414.9 131.517 1426.82 147.948C1438.89 164.567 1452.65 177.774 1468.02 187.568C1483.4 197.361 1499.51 203.664 1516.33 206.418C1533.16 209.173 1550.23 208.346 1567.69 203.935C1585.16 199.523 1602.17 191.369 1618.6 179.441C1630.55 170.766 1640.87 160.943 1649.53 150.093C1658.19 139.244 1664.92 127.709 1669.85 115.44C1674.77 103.171 1677.53 90.3239 1678.09 76.9492C1678.64 63.5737 1676.86 49.9516 1672.78 36.0879C1671.38 31.3075 1669.65 26.5216 1667.59 21.7526L1606.86 65.4358C1609.93 71.7232 1611.81 77.7634 1612.28 83.496C1612.78 89.688 1611.96 95.5959 1609.91 101.218C1607.86 106.839 1604.81 112.148 1600.65 117.02C1596.49 121.894 1591.62 126.297 1586.21 130.227C1577.06 136.869 1567.92 141.048 1558.78 142.982C1549.63 144.916 1540.76 144.856 1532.02 142.643C1523.29 140.43 1514.97 136.3 1507.08 130.34C1499.19 124.378 1491.91 116.953 1485.41 107.99C1478.22 98.0937 1473.18 88.0725 1470.06 78.0779C1466.93 68.0833 1465.59 58.5587 1466.22 49.4073C1466.84 40.2562 1469.41 31.7441 1473.89 23.7844C1478.38 15.8238 1484.75 8.86611 1492.97 2.90221C1502.87-4.28123 1513.5-8.2541 1524.91-8.83694C1536.32-9.42043 1548.68-5.60225 1561.94 2.4507L1598.4-56.9223C1580.24-66.6206 1562.22-72.068 1544.44-73.0636Z" fill="#000000" fill-rule="nonzero" opacity="1" stroke="none"/>
<path d="M1541.53 60.7835L1647.41-22.4262L1665.93 1.12842L1560.04 84.3381L1541.53 60.7835Z" fill="#fffffe" fill-rule="nonzero" opacity="1" stroke="none"/>
<path d="M1667.83 7.29853L1684.75-4.88069L1665.89-31.0728L1648.97-18.893L1667.83 7.29853ZM1533.34 87.9307L1569.46 93.8083C1570.52 93.982 1571.61 93.7265 1572.49 93.0941L1681.46 14.6242L1666.34-6.37411L1564.36 67.0555C1562.54 68.3694 1560 67.9566 1558.69 66.1321C1557.38 64.3076 1557.79 61.7712 1559.61 60.4574L1661.59-12.9723L1646.47-33.9706L1537.49 44.4993C1536.62 45.127 1536.03 46.0818 1535.86 47.1453L1529.98 83.2644C1529.62 85.4797 1531.12 87.5695 1533.34 87.9307Z" fill="#000000" fill-rule="nonzero" opacity="1" stroke="none"/>
</g>
<g opacity="1">
<path d="M445.972 196.602L432.153 206.554L386.404 143.032L400.223 133.079L445.972 196.602Z" fill="#000000" fill-rule="nonzero" opacity="1" stroke="none"/>
<path d="M295.66 105.685C289.735 105.353 283.822 105.502 277.939 106.137C254.408 108.677 231.682 118.023 209.648 134.017C192.656 146.351 179.238 160.223 169.352 175.669C159.465 191.114 153.143 207.267 150.388 224.093C147.634 240.919 148.569 258.09 153.21 275.677C157.851 293.264 166.115 310.266 178.043 326.697C190.106 343.316 203.865 356.523 219.243 366.317C234.62 376.11 250.728 382.413 267.554 385.167C284.38 387.922 301.445 387.095 318.913 382.684C336.381 378.272 353.389 370.118 369.82 358.19C381.77 349.515 392.087 339.692 400.748 328.842C409.409 317.993 416.143 306.458 421.066 294.189C425.988 281.92 428.751 269.073 429.306 255.698C429.861 242.323 428.077 228.701 424.001 214.837C422.601 210.056 420.868 205.271 418.808 200.502L358.081 244.185C361.149 250.472 363.033 256.512 363.499 262.245C364.002 268.437 363.179 274.345 361.129 279.967C359.079 285.588 356.034 290.897 351.873 295.769C347.712 300.643 342.84 305.046 337.425 308.976C328.275 315.617 319.141 319.797 309.996 321.731C300.85 323.665 291.978 323.605 283.244 321.392C274.51 319.179 266.189 315.049 258.298 309.089C250.407 303.127 243.132 295.702 236.626 286.739C229.442 276.843 224.395 266.821 221.275 256.827C218.154 246.832 216.809 237.308 217.437 228.156C218.064 219.005 220.626 210.493 225.112 202.533C229.598 194.573 235.972 187.615 244.189 181.651C254.085 174.468 264.723 170.495 276.133 169.912C287.541 169.329 299.898 173.147 313.156 181.2L349.615 121.827C331.456 112.128 313.436 106.681 295.66 105.685Z" fill="#000000" fill-rule="nonzero" opacity="1" stroke="none"/>
<path d="M292.752 239.532L398.634 156.323L417.145 179.877L311.263 263.087L292.752 239.532Z" fill="#fffffe" fill-rule="nonzero" opacity="1" stroke="none"/>
<path d="M419.05 186.047L435.968 173.868L417.107 147.676L400.193 159.856L419.05 186.047ZM284.558 266.68L320.677 272.557C321.744 272.731 322.832 272.475 323.705 271.843L432.678 193.373L417.557 172.375L315.584 245.804C313.76 247.118 311.223 246.706 309.909 244.881C308.596 243.057 309.008 240.52 310.833 239.206L412.806 165.777L397.685 144.778L288.713 223.248C287.836 223.876 287.248 224.831 287.075 225.894L281.197 262.013C280.837 264.229 282.338 266.318 284.558 266.68Z" fill="#000000" fill-rule="nonzero" opacity="1" stroke="none"/>
</g>
<g opacity="1">
<path d="M953.508 1007.24L939.689 1017.19L893.941 953.67L907.76 943.717L953.508 1007.24Z" fill="#000000" fill-rule="nonzero" opacity="1" stroke="none"/>
<path d="M803.197 916.324C797.271 915.992 791.358 916.14 785.475 916.775C761.944 919.315 739.218 928.661 717.185 944.655C700.193 956.99 686.775 970.861 676.888 986.307C667.001 1001.75 660.679 1017.91 657.925 1034.73C655.17 1051.56 656.105 1068.73 660.746 1086.32C665.387 1103.9 673.652 1120.9 685.579 1137.34C697.643 1153.95 711.401 1167.16 726.779 1176.96C742.157 1186.75 758.265 1193.05 775.09 1195.81C791.916 1198.56 808.981 1197.73 826.449 1193.32C843.917 1188.91 860.925 1180.76 877.356 1168.83C889.307 1160.15 899.623 1150.33 908.284 1139.48C916.946 1128.63 923.68 1117.1 928.602 1104.83C933.524 1092.56 936.287 1079.71 936.842 1066.34C937.397 1052.96 935.613 1039.34 931.537 1025.48C930.137 1020.69 928.405 1015.91 926.345 1011.14L865.617 1054.82C868.685 1061.11 870.569 1067.15 871.035 1072.88C871.539 1079.08 870.715 1084.98 868.665 1090.6C866.616 1096.23 863.57 1101.53 859.409 1106.41C855.248 1111.28 850.376 1115.68 844.961 1119.61C835.812 1126.26 826.677 1130.43 817.532 1132.37C808.387 1134.3 799.514 1134.24 790.78 1132.03C782.046 1129.82 773.726 1125.69 765.834 1119.73C757.943 1113.77 750.668 1106.34 744.162 1097.38C736.978 1087.48 731.931 1077.46 728.811 1067.47C725.69 1057.47 724.346 1047.95 724.973 1038.79C725.601 1029.64 728.162 1021.13 732.649 1013.17C737.134 1005.21 743.508 998.253 751.725 992.289C761.621 985.106 772.259 981.133 783.669 980.55C795.078 979.967 807.434 983.785 820.692 991.838L857.151 932.465C838.992 922.767 820.973 917.319 803.197 916.324Z" fill="#000000" fill-rule="nonzero" opacity="1" stroke="none"/>
<path d="M800.288 1050.17L906.171 966.961L924.681 990.516L818.799 1073.73L800.288 1050.17Z" fill="#fffffe" fill-rule="nonzero" opacity="1" stroke="none"/>
<path d="M926.586 996.686L943.504 984.506L924.643 958.314L907.729 970.494L926.586 996.686ZM792.094 1077.32L828.213 1083.2C829.28 1083.37 830.368 1083.11 831.242 1082.48L940.214 1004.01L925.093 983.013L823.12 1056.44C821.296 1057.76 818.76 1057.34 817.446 1055.52C816.132 1053.69 816.545 1051.16 818.369 1049.84L920.342 976.415L905.221 955.417L796.249 1033.89C795.372 1034.51 794.784 1035.47 794.611 1036.53L788.734 1072.65C788.373 1074.87 789.875 1076.96 792.094 1077.32Z" fill="#000000" fill-rule="nonzero" opacity="1" stroke="none"/>
</g>
<g opacity="1">
<path d="M218.315 878.31L204.496 888.263L158.748 824.74L172.567 814.788L218.315 878.31Z" fill="#000000" fill-rule="nonzero" opacity="1" stroke="none"/>
<path d="M68.0035 787.394C62.0781 787.062 56.1648 787.21 50.2819 787.845C26.7511 790.386 4.02528 799.731-18.0083 815.726C-35.0003 828.06-48.4183 841.932-58.3052 857.377C-68.1921 872.822-74.5137 888.975-77.2685 905.801C-80.0231 922.627-79.0879 939.798-74.4466 957.386C-69.8058 974.972-61.5414 991.975-49.6137 1008.41C-37.5503 1025.02-23.7919 1038.23-8.41383 1048.03C6.96352 1057.82 23.0716 1064.12 39.8973 1066.88C56.7232 1069.63 73.7878 1068.8 91.2561 1064.39C108.724 1059.98 125.732 1051.83 142.163 1039.9C154.114 1031.22 164.43 1021.4 173.091 1010.55C181.753 999.701 188.487 988.166 193.409 975.897C198.331 963.628 201.094 950.781 201.649 937.406C202.204 924.031 200.42 910.409 196.344 896.545C194.944 891.765 193.212 886.979 191.152 882.21L130.424 925.893C133.492 932.181 135.376 938.221 135.842 943.953C136.346 950.145 135.522 956.053 133.472 961.675C131.423 967.296 128.377 972.605 124.216 977.478C120.055 982.351 115.183 986.754 109.768 990.684C100.619 997.326 91.484 1001.5 82.3388 1003.44C73.1937 1005.37 64.3215 1005.31 55.5871 1003.1C46.8528 1000.89 38.5327 996.758 30.6414 990.797C22.7498 984.835 15.4751 977.41 8.96914 968.447C1.78541 958.551-3.26189 948.53-6.38206 938.535C-9.50284 928.541-10.8473 919.016-10.2199 909.865C-9.59246 900.713-7.03065 892.201-2.54426 884.242C1.94135 876.281 8.31531 869.323 16.5319 863.359C26.4285 856.176 37.0664 852.203 48.4759 851.62C59.8847 851.037 72.2411 854.855 85.4994 862.908L121.958 803.535C103.799 793.837 85.7797 788.389 68.0035 787.394Z" fill="#000000" fill-rule="nonzero" opacity="1" stroke="none"/>
<path d="M65.0952 921.241L170.978 838.031L189.488 861.586L83.6061 944.795L65.0952 921.241Z" fill="#fffffe" fill-rule="nonzero" opacity="1" stroke="none"/>
<path d="M191.393 867.756L208.311 855.577L189.45 829.384L172.536 841.564L191.393 867.756ZM56.9009 948.388L93.02 954.266C94.0875 954.439 95.1754 954.184 96.0487 953.551L205.021 875.082L189.9 854.083L87.9274 927.513C86.1029 928.827 83.5665 928.414 82.2527 926.589C80.9389 924.765 81.3516 922.228 83.1761 920.915L185.149 847.485L170.028 826.487L61.0559 904.957C60.1793 905.584 59.5914 906.539 59.4184 907.603L53.5407 943.722C53.1802 945.937 54.6816 948.027 56.9009 948.388Z" fill="#000000" fill-rule="nonzero" opacity="1" stroke="none"/>
</g>
<g opacity="1">
<path d="M1203.75 303.848L1189.93 313.801L1144.18 250.278L1158 240.326L1203.75 303.848Z" fill="#000000" fill-rule="nonzero" opacity="1" stroke="none"/>
<path d="M1053.44 212.932C1047.51 212.6 1041.6 212.748 1035.72 213.383C1012.19 215.924 989.462 225.269 967.428 241.264C950.436 253.598 937.018 267.47 927.131 282.915C917.244 298.36 910.923 314.514 908.168 331.339C905.413 348.165 906.348 365.337 910.99 382.924C915.63 400.511 923.895 417.513 935.823 433.944C947.886 450.562 961.644 463.769 977.022 473.564C992.4 483.357 1008.51 489.659 1025.33 492.414C1042.16 495.169 1059.22 494.342 1076.69 489.931C1094.16 485.518 1111.17 477.364 1127.6 465.436C1139.55 456.762 1149.87 446.938 1158.53 436.089C1167.19 425.24 1173.92 413.704 1178.85 401.436C1183.77 389.167 1186.53 376.319 1187.09 362.945C1187.64 349.569 1185.86 335.947 1181.78 322.083C1180.38 317.303 1178.65 312.517 1176.59 307.748L1115.86 351.431C1118.93 357.719 1120.81 363.759 1121.28 369.491C1121.78 375.684 1120.96 381.591 1118.91 387.213C1116.86 392.834 1113.81 398.143 1109.65 403.016C1105.49 407.889 1100.62 412.292 1095.2 416.222C1086.05 422.864 1076.92 427.043 1067.78 428.977C1058.63 430.911 1049.76 430.852 1041.02 428.639C1032.29 426.426 1023.97 422.296 1016.08 416.335C1008.19 410.374 1000.91 402.948 994.405 393.986C987.222 384.089 982.174 374.068 979.054 364.073C975.933 354.079 974.589 344.554 975.216 335.403C975.844 326.252 978.406 317.74 982.892 309.78C987.378 301.819 993.752 294.862 1001.97 288.898C1011.86 281.714 1022.5 277.741 1033.91 277.159C1045.32 276.575 1057.68 280.393 1070.94 288.446L1107.39 229.073C1089.24 219.375 1071.22 213.927 1053.44 212.932Z" fill="#000000" fill-rule="nonzero" opacity="1" stroke="none"/>
<path d="M1050.53 346.779L1156.41 263.569L1174.92 287.124L1069.04 370.334L1050.53 346.779Z" fill="#fffffe" fill-rule="nonzero" opacity="1" stroke="none"/>
<path d="M1176.83 293.294L1193.75 281.115L1174.89 254.923L1157.97 267.102L1176.83 293.294ZM1042.34 373.926L1078.46 379.804C1079.52 379.977 1080.61 379.722 1081.48 379.09L1190.46 300.62L1175.34 279.621L1073.36 353.051C1071.54 354.365 1069 353.952 1067.69 352.128C1066.38 350.303 1066.79 347.767 1068.61 346.453L1170.59 273.023L1155.46 252.025L1046.49 330.495C1045.62 331.122 1045.03 332.077 1044.85 333.141L1038.98 369.26C1038.62 371.475 1040.12 373.565 1042.34 373.926Z" fill="#000000" fill-rule="nonzero" opacity="1" stroke="none"/>
</g>
<g opacity="1">
<path d="M-45.029 482.597L-58.848 492.55L-104.597 429.027L-90.7777 419.075L-45.029 482.597Z" fill="#000000" fill-rule="nonzero" opacity="1" stroke="none"/>
<path d="M-195.341 391.681C-201.266 391.349-207.18 391.497-213.062 392.132C-236.593 394.673-259.319 404.018-281.353 420.013C-298.345 432.347-311.763 446.219-321.65 461.664C-331.536 477.109-337.858 493.263-340.613 510.088C-343.367 526.914-342.432 544.086-337.791 561.673C-333.15 579.26-324.886 596.262-312.958 612.693C-300.895 629.311-287.136 642.518-271.758 652.312C-256.381 662.106-240.273 668.408-223.447 671.163C-206.621 673.918-189.557 673.091-172.088 668.68C-154.62 664.267-137.612 656.113-121.181 644.185C-109.231 635.511-98.9142 625.687-90.2529 614.838C-81.5916 603.989-74.8578 592.453-69.9351 580.184C-65.013 567.916-62.2499 555.068-61.6951 541.694C-61.1402 528.318-62.9246 514.696-67.0003 500.832C-68.4003 496.052-70.1328 491.266-72.1926 486.497L-132.92 530.18C-129.852 536.468-127.968 542.508-127.502 548.24C-126.999 554.432-127.823 560.34-129.873 565.962C-131.922 571.583-134.967 576.892-139.128 581.765C-143.289 586.638-148.162 591.041-153.577 594.971C-162.726 601.613-171.86 605.792-181.006 607.726C-190.151 609.66-199.023 609.601-207.757 607.388C-216.492 605.175-224.812 601.045-232.703 595.084C-240.595 589.123-247.869 581.697-254.375 572.735C-261.559 562.838-266.606 552.817-269.726 542.822C-272.847 532.828-274.192 523.303-273.564 514.152C-272.937 505.001-270.375 496.489-265.889 488.529C-261.403 480.568-255.029 473.611-246.812 467.647C-236.916 460.463-226.278 456.49-214.868 455.907C-203.46 455.324-191.103 459.142-177.845 467.195L-141.386 407.822C-159.545 398.124-177.565 392.676-195.341 391.681Z" fill="#000000" fill-rule="nonzero" opacity="1" stroke="none"/>
<path d="M-198.249 525.528L-92.3668 442.318L-73.8559 465.873L-179.738 549.083L-198.249 525.528Z" fill="#fffffe" fill-rule="nonzero" opacity="1" stroke="none"/>
<path d="M-71.9509 472.043L-55.0331 459.864L-73.8939 433.672L-90.8081 445.851L-71.9509 472.043ZM-206.443 552.675L-170.324 558.553C-169.257 558.726-168.169 558.471-167.296 557.839L-58.3235 479.369L-73.4443 458.37L-175.417 531.8C-177.241 533.114-179.778 532.701-181.092 530.877C-182.405 529.052-181.993 526.516-180.168 525.202L-78.1955 451.772L-93.3163 430.774L-202.288 509.244C-203.165 509.871-203.753 510.826-203.926 511.89L-209.804 548.009C-210.164 550.224-208.663 552.314-206.443 552.675Z" fill="#000000" fill-rule="nonzero" opacity="1" stroke="none"/>
</g>
<g opacity="1">
<path d="M787.251 167.635L801.276 157.975L845.679 222.446L831.654 232.106L787.251 167.635Z" fill="#000000" fill-rule="nonzero" opacity="1" stroke="none"/>
<path d="M935.617 261.693C941.534 262.149 947.45 262.125 953.345 261.614C976.924 259.569 999.841 250.704 1022.21 235.176C1039.45 223.202 1053.16 209.616 1063.37 194.382C1073.58 179.148 1080.24 163.131 1083.35 146.367C1086.46 129.603 1085.88 112.415 1081.61 94.7346C1077.34 77.0541 1069.44 59.8817 1057.86 43.2035C1046.15 26.335 1032.67 12.8415 1017.5 2.72601C1002.33-7.38856 986.36-14.0283 969.596-17.1363C952.832-20.2446 935.753-19.7767 918.196-15.7339C900.639-11.6901 883.463-3.8953 866.785 7.68412C854.655 16.1055 844.134 25.7098 835.246 36.375C826.359 47.0394 819.384 58.4304 814.204 70.593C809.025 82.7556 805.992 95.542 805.157 108.902C804.32 122.263 805.818 135.919 809.601 149.866C810.9 154.675 812.532 159.496 814.491 164.307L876.124 121.911C873.189 115.56 871.432 109.482 871.087 103.741C870.714 97.5396 871.661 91.6503 873.829 86.073C875.996 80.496 879.153 75.2526 883.415 70.4685C887.678 65.6836 892.642 61.384 898.138 57.5688C907.425 51.121 916.646 47.1349 925.829 45.3935C935.013 43.6523 943.882 43.8984 952.568 46.2947C961.254 48.6908 969.485 52.9948 977.249 59.1202C985.014 65.2465 992.131 72.8231 998.447 81.9207C1005.42 91.966 1010.26 102.091 1013.17 112.149C1016.08 122.207 1017.22 131.758 1016.4 140.894C1015.58 150.03 1012.84 158.486 1008.19 166.35C1003.53 174.214 997.016 181.037 988.675 186.826C978.63 193.8 967.911 197.548 956.492 197.891C945.073 198.234 932.8 194.157 919.714 185.827L882.014 244.42C899.965 254.498 917.866 260.323 935.617 261.693Z" fill="#000000" fill-rule="nonzero" opacity="1" stroke="none"/>
<path d="M941.34 127.936L833.731 208.901L815.72 184.962L923.329 103.998L941.34 127.936Z" fill="#fffffe" fill-rule="nonzero" opacity="1" stroke="none"/>
<path d="M813.945 178.753L796.775 190.574L815.08 217.157L832.247 205.335L813.945 178.753ZM950.104 100.968L914.116 94.3315C913.053 94.1354 911.96 94.3679 911.073 94.9818L800.475 171.142L815.15 192.454L918.645 121.185C920.497 119.91 923.024 120.376 924.299 122.228C925.574 124.08 925.108 126.607 923.257 127.882L819.762 199.151L834.438 220.462L945.036 144.302C945.926 143.693 946.534 142.751 946.729 141.691L953.365 105.703C953.772 103.496 952.315 101.375 950.104 100.968Z" fill="#000000" fill-rule="nonzero" opacity="1" stroke="none"/>
</g>
<g opacity="1">
<path d="M1294.79 978.273L1308.81 968.613L1353.22 1033.08L1339.19 1042.74L1294.79 978.273Z" fill="#000000" fill-rule="nonzero" opacity="1" stroke="none"/>
<path d="M1443.15 1072.33C1449.07 1072.79 1454.99 1072.76 1460.88 1072.25C1484.46 1070.21 1507.38 1061.34 1529.74 1045.81C1546.99 1033.84 1560.7 1020.25 1570.91 1005.02C1581.12 989.786 1587.78 973.769 1590.88 957.005C1593.99 940.241 1593.42 923.054 1589.15 905.373C1584.88 887.692 1576.97 870.52 1565.39 853.842C1553.68 836.973 1540.2 823.48 1525.04 813.364C1509.87 803.25 1493.9 796.61 1477.13 793.502C1460.37 790.394 1443.29 790.862 1425.73 794.904C1408.18 798.948 1391 806.743 1374.32 818.322C1362.19 826.744 1351.67 836.348 1342.78 847.013C1333.9 857.678 1326.92 869.069 1321.74 881.231C1316.56 893.394 1313.53 906.18 1312.69 919.54C1311.86 932.901 1313.35 946.558 1317.14 960.504C1318.44 965.313 1320.07 970.134 1322.03 974.945L1383.66 932.549C1380.72 926.199 1378.97 920.12 1378.62 914.379C1378.25 908.178 1379.2 902.288 1381.37 896.711C1383.53 891.134 1386.69 885.891 1390.95 881.107C1395.21 876.322 1400.18 872.022 1405.67 868.207C1414.96 861.759 1424.18 857.773 1433.37 856.032C1442.55 854.29 1451.42 854.537 1460.1 856.933C1468.79 859.329 1477.02 863.633 1484.79 869.758C1492.55 875.885 1499.67 883.461 1505.98 892.559C1512.96 902.604 1517.79 912.729 1520.7 922.787C1523.61 932.845 1524.76 942.396 1523.94 951.532C1523.12 960.668 1520.38 969.125 1515.72 976.988C1511.07 984.853 1504.55 991.675 1496.21 997.465C1486.17 1004.44 1475.45 1008.19 1464.03 1008.53C1452.61 1008.87 1440.34 1004.8 1427.25 996.465L1389.55 1055.06C1407.5 1065.14 1425.4 1070.96 1443.15 1072.33Z" fill="#000000" fill-rule="nonzero" opacity="1" stroke="none"/>
<path d="M1448.88 938.575L1341.27 1019.54L1323.26 995.6L1430.87 914.636L1448.88 938.575Z" fill="#fffffe" fill-rule="nonzero" opacity="1" stroke="none"/>
<path d="M1321.48 989.391L1304.31 1001.21L1322.62 1027.79L1339.78 1015.97L1321.48 989.391ZM1457.64 911.606L1421.65 904.97C1420.59 904.774 1419.5 905.006 1418.61 905.62L1308.01 981.78L1322.69 1003.09L1426.18 931.824C1428.03 930.549 1430.56 931.015 1431.84 932.866C1433.11 934.718 1432.64 937.245 1430.79 938.52L1327.3 1009.79L1341.97 1031.1L1452.57 954.94C1453.46 954.331 1454.07 953.389 1454.27 952.329L1460.9 916.342C1461.31 914.134 1459.85 912.013 1457.64 911.606Z" fill="#000000" fill-rule="nonzero" opacity="1" stroke="none"/>
</g>
<g opacity="1">
<path d="M523.907-228.078L537.932-237.738L582.335-173.267L568.309-163.607L523.907-228.078Z" fill="#000000" fill-rule="nonzero" opacity="1" stroke="none"/>
<path d="M672.273-134.02C678.19-133.564 684.105-133.588 690-134.099C713.579-136.144 736.497-145.009 758.862-160.537C776.109-172.511 789.816-186.097 800.026-201.331C810.235-216.565 816.895-232.582 820.003-249.346C823.111-266.11 822.538-283.297 818.267-300.978C813.997-318.659 806.092-335.831 794.513-352.509C782.802-369.378 769.324-382.871 754.155-392.987C738.987-403.101 723.016-409.741 706.252-412.849C689.487-415.957 672.409-415.49 654.852-411.447C637.295-407.403 620.119-399.608 603.441-388.029C591.31-379.607 580.79-370.003 571.902-359.338C563.015-348.673 556.04-337.282 550.86-325.12C545.681-312.957 542.648-300.171 541.812-286.811C540.976-273.45 542.473-259.793 546.257-245.847C547.556-241.038 549.187-236.217 551.146-231.406L612.779-273.802C609.844-280.152 608.088-286.231 607.742-291.972C607.369-298.173 608.317-304.063 610.485-309.64C612.652-315.217 615.808-320.46 620.071-325.244C624.333-330.029 629.297-334.329 634.794-338.144C644.081-344.592 653.301-348.578 662.485-350.319C671.669-352.061 680.538-351.814 689.224-349.418C697.91-347.022 706.141-342.718 713.905-336.593C721.67-330.466 728.787-322.89 735.103-313.792C742.076-303.747 746.912-293.622 749.821-283.564C752.731-273.506 753.875-263.955 753.055-254.819C752.235-245.683 749.495-237.226 744.842-229.363C740.19-221.498 733.671-214.676 725.331-208.887C715.286-201.913 704.566-198.165 693.147-197.822C681.729-197.479 669.455-201.556 656.369-209.886L618.669-151.293C636.621-141.215 654.522-135.389 672.273-134.02Z" fill="#000000" fill-rule="nonzero" opacity="1" stroke="none"/>
<path d="M677.996-267.777L570.387-186.812L552.375-210.751L659.985-291.715L677.996-267.777Z" fill="#fffffe" fill-rule="nonzero" opacity="1" stroke="none"/>
<path d="M550.601-216.96L533.43-205.139L551.736-178.556L568.903-190.377L550.601-216.96ZM686.759-294.745L650.772-301.381C649.708-301.577 648.615-301.345 647.729-300.731L537.13-224.571L551.806-203.259L655.301-274.527C657.152-275.803 659.68-275.337 660.955-273.485C662.23-271.633 661.764-269.106 659.912-267.831L556.418-196.562L571.093-175.25L681.692-251.411C682.581-252.02 683.189-252.962 683.385-254.022L690.021-290.009C690.428-292.217 688.971-294.338 686.759-294.745Z" fill="#000000" fill-rule="nonzero" opacity="1" stroke="none"/>
</g>
<g opacity="1">
<path d="M1031.44 582.56L1045.47 572.901L1089.87 637.371L1075.85 647.031L1031.44 582.56Z" fill="#000000" fill-rule="nonzero" opacity="1" stroke="none"/>
<path d="M1179.81 676.618C1185.73 677.074 1191.64 677.051 1197.54 676.539C1221.12 674.495 1244.03 665.629 1266.4 650.101C1283.65 638.127 1297.35 624.541 1307.56 609.307C1317.77 594.073 1324.43 578.056 1327.54 561.292C1330.65 544.528 1330.07 527.341 1325.8 509.66C1321.53 491.979 1313.63 474.807 1302.05 458.129C1290.34 441.26 1276.86 427.767 1261.69 417.651C1246.52 407.537 1230.55 400.897 1213.79 397.789C1197.02 394.681 1179.95 395.149 1162.39 399.191C1144.83 403.235 1127.66 411.03 1110.98 422.609C1098.85 431.031 1088.33 440.635 1079.44 451.3C1070.55 461.965 1063.58 473.356 1058.4 485.518C1053.22 497.681 1050.18 510.467 1049.35 523.827C1048.51 537.188 1050.01 550.845 1053.79 564.791C1055.09 569.6 1056.72 574.421 1058.68 579.233L1120.32 536.836C1117.38 530.486 1115.62 524.407 1115.28 518.666C1114.91 512.465 1115.85 506.576 1118.02 500.998C1120.19 495.421 1123.34 490.178 1127.61 485.394C1131.87 480.609 1136.83 476.309 1142.33 472.494C1151.62 466.046 1160.84 462.06 1170.02 460.319C1179.21 458.578 1188.07 458.824 1196.76 461.22C1205.45 463.616 1213.68 467.92 1221.44 474.046C1229.21 480.172 1236.32 487.748 1242.64 496.846C1249.61 506.891 1254.45 517.017 1257.36 527.075C1260.27 537.133 1261.41 546.683 1260.59 555.82C1259.77 564.955 1257.03 573.412 1252.38 581.275C1247.73 589.14 1241.21 595.962 1232.87 601.752C1222.82 608.725 1212.1 612.474 1200.68 612.816C1189.26 613.16 1176.99 609.082 1163.91 600.752L1126.21 659.345C1144.16 669.424 1162.06 675.249 1179.81 676.618Z" fill="#000000" fill-rule="nonzero" opacity="1" stroke="none"/>
<path d="M1185.53 542.862L1077.92 623.826L1059.91 599.887L1167.52 518.923L1185.53 542.862Z" fill="#fffffe" fill-rule="nonzero" opacity="1" stroke="none"/>
<path d="M1058.14 593.678L1040.97 605.499L1059.27 632.082L1076.44 620.261L1058.14 593.678ZM1194.3 515.893L1158.31 509.257C1157.24 509.061 1156.15 509.293 1155.27 509.907L1044.67 586.068L1059.34 607.379L1162.84 536.111C1164.69 534.836 1167.22 535.302 1168.49 537.153C1169.77 539.005 1169.3 541.532 1167.45 542.807L1063.95 614.076L1078.63 635.388L1189.23 559.227C1190.12 558.618 1190.73 557.676 1190.92 556.616L1197.56 520.629C1197.96 518.422 1196.51 516.301 1194.3 515.893Z" fill="#000000" fill-rule="nonzero" opacity="1" stroke="none"/>
</g>
<g opacity="1">
<path d="M296.25 453.63L310.275 443.971L354.678 508.441L340.652 518.101L296.25 453.63Z" fill="#000000" fill-rule="nonzero" opacity="1" stroke="none"/>
<path d="M444.616 547.688C450.533 548.145 456.448 548.121 462.343 547.61C485.922 545.565 508.84 536.699 531.205 521.172C548.453 509.198 562.159 495.611 572.369 480.377C582.579 465.143 589.239 449.127 592.347 432.363C595.455 415.598 594.881 398.411 590.61 380.73C586.341 363.05 578.436 345.877 566.856 329.199C555.145 312.331 541.667 298.837 526.499 288.721C511.331 278.607 495.359 271.967 478.595 268.859C461.831 265.751 444.752 266.219 427.195 270.262C409.638 274.305 392.462 282.1 375.784 293.68C363.654 302.101 353.133 311.705 344.245 322.37C335.358 333.035 328.383 344.426 323.203 356.588C318.024 368.751 314.991 381.537 314.155 394.898C313.319 408.258 314.817 421.915 318.6 435.861C319.899 440.67 321.531 445.491 323.49 450.303L385.123 407.907C382.187 401.556 380.431 395.477 380.086 389.736C379.713 383.535 380.66 377.646 382.828 372.068C384.995 366.491 388.152 361.248 392.414 356.464C396.677 351.679 401.641 347.379 407.137 343.564C416.424 337.116 425.645 333.13 434.828 331.389C444.012 329.648 452.881 329.894 461.567 332.29C470.253 334.686 478.484 338.99 486.248 345.116C494.013 351.242 501.13 358.819 507.446 367.916C514.42 377.962 519.255 388.087 522.164 398.145C525.074 408.203 526.218 417.754 525.398 426.89C524.579 436.026 521.838 444.482 517.185 452.346C512.533 460.21 506.015 467.032 497.674 472.822C487.629 479.795 476.91 483.544 465.49 483.886C454.072 484.23 441.799 480.153 428.713 471.823L391.013 530.416C408.964 540.494 426.865 546.319 444.616 547.688Z" fill="#000000" fill-rule="nonzero" opacity="1" stroke="none"/>
<path d="M450.339 413.932L342.73 494.896L324.719 470.957L432.328 389.993L450.339 413.932Z" fill="#fffffe" fill-rule="nonzero" opacity="1" stroke="none"/>
<path d="M322.944 464.748L305.774 476.569L324.079 503.152L341.246 491.331L322.944 464.748ZM459.103 386.963L423.115 380.327C422.052 380.131 420.959 380.363 420.072 380.977L309.474 457.138L324.149 478.449L427.644 407.181C429.496 405.906 432.023 406.372 433.298 408.224C434.573 410.075 434.107 412.602 432.255 413.878L328.761 485.146L343.437 506.458L454.035 430.297C454.925 429.688 455.533 428.746 455.728 427.686L462.364 391.699C462.771 389.492 461.314 387.371 459.103 386.963Z" fill="#000000" fill-rule="nonzero" opacity="1" stroke="none"/>
</g>
<g opacity="1">
<path d="M1281.69-120.832L1295.71-130.491L1340.11-66.0204L1326.09-56.3608L1281.69-120.832Z" fill="#000000" fill-rule="nonzero" opacity="1" stroke="none"/>
<path d="M1430.05-26.7736C1435.97-26.3172 1441.88-26.3411 1447.78-26.8523C1471.36-28.8972 1494.28-37.7624 1516.64-53.2902C1533.89-65.2642 1547.6-78.8507 1557.81-94.0848C1568.01-109.318 1574.67-125.335 1577.78-142.099C1580.89-158.863 1580.32-176.051 1576.05-193.732C1571.78-211.412 1563.87-228.585 1552.29-245.263C1540.58-262.131 1527.1-275.625 1511.93-285.74C1496.77-295.855 1480.8-302.495 1464.03-305.603C1447.27-308.711 1430.19-308.243 1412.63-304.2C1395.07-300.156 1377.9-292.362 1361.22-280.782C1349.09-272.361 1338.57-262.757 1329.68-252.091C1320.79-241.427 1313.82-230.036 1308.64-217.873C1303.46-205.711 1300.43-192.924 1299.59-179.564C1298.76-166.203 1300.25-152.547 1304.04-138.6C1305.34-133.792 1306.97-128.97 1308.93-124.159L1370.56-166.555C1367.62-172.906 1365.87-178.984 1365.52-184.725C1365.15-190.927 1366.1-196.816 1368.26-202.393C1370.43-207.97 1373.59-213.214 1377.85-217.998C1382.11-222.783 1387.08-227.082 1392.57-230.898C1401.86-237.345 1411.08-241.331 1420.26-243.073C1429.45-244.814 1438.32-244.568 1447-242.172C1455.69-239.775 1463.92-235.471 1471.68-229.346C1479.45-223.22 1486.57-215.643 1492.88-206.546C1499.86-196.5 1504.69-186.375 1507.6-176.317C1510.51-166.259 1511.65-156.708 1510.83-147.572C1510.01-138.436 1507.27-129.98 1502.62-122.116C1497.97-114.252 1491.45-107.43 1483.11-101.64C1473.07-94.6663 1462.35-90.9181 1450.93-90.5754C1439.51-90.232 1427.23-94.3092 1414.15-102.639L1376.45-44.0462C1394.4-33.9681 1412.3-28.1429 1430.05-26.7736Z" fill="#000000" fill-rule="nonzero" opacity="1" stroke="none"/>
<path d="M1435.78-160.53L1328.17-79.5658L1310.15-103.505L1417.76-184.469L1435.78-160.53Z" fill="#fffffe" fill-rule="nonzero" opacity="1" stroke="none"/>
<path d="M1308.38-109.713L1291.21-97.8927L1309.52-71.3096L1326.68-83.1309L1308.38-109.713ZM1444.54-187.499L1408.55-194.135C1407.49-194.331 1406.39-194.098 1405.51-193.485L1294.91-117.324L1309.59-96.0123L1413.08-167.281C1414.93-168.556 1417.46-168.09 1418.73-166.238C1420.01-164.386 1419.54-161.859 1417.69-160.584L1314.2-89.3157L1328.87-68.0039L1439.47-144.164C1440.36-144.773 1440.97-145.716 1441.16-146.775L1447.8-182.763C1448.21-184.97 1446.75-187.091 1444.54-187.499Z" fill="#000000" fill-rule="nonzero" opacity="1" stroke="none"/>
</g>
<g opacity="1">
<path d="M32.9056 57.9174L46.9309 48.2578L91.3334 112.729L77.3081 122.388L32.9056 57.9174Z" fill="#000000" fill-rule="nonzero" opacity="1" stroke="none"/>
<path d="M181.272 151.975C187.189 152.432 193.104 152.408 198.999 151.897C222.578 149.852 245.495 140.987 267.861 125.459C285.108 113.485 298.815 99.8982 309.025 84.6642C319.234 69.4306 325.894 53.4137 329.002 36.6498C332.11 19.8855 331.536 2.6981 327.266-14.9827C322.996-32.6633 315.091-49.8356 303.512-66.5139C291.801-83.3823 278.323-96.8759 263.154-106.991C247.986-117.106 232.014-123.746 215.25-126.854C198.486-129.962 181.408-129.494 163.851-125.451C146.294-121.407 129.118-113.613 112.44-102.033C100.309-93.6118 89.7886-84.0076 80.901-73.3424C72.0135-62.678 65.0385-51.287 59.8588-39.1244C54.6798-26.9618 51.647-14.1754 50.8111-0.815324C49.975 12.5455 51.4723 26.2021 55.2556 40.1485C56.5547 44.9572 58.1862 49.7786 60.1453 54.5898L121.778 12.1937C118.843 5.84302 117.087-0.235443 116.741-5.97655C116.368-12.1778 117.316-18.0671 119.484-23.6444C121.651-29.2214 124.807-34.4648 129.07-39.2489C133.332-44.0337 138.296-48.3334 143.793-52.1486C153.08-58.5964 162.3-62.5825 171.484-64.3239C180.668-66.0651 189.537-65.819 198.223-63.4227C206.908-61.0265 215.14-56.7225 222.904-50.5971C230.669-44.4709 237.785-36.8943 244.101-27.7967C251.075-17.7513 255.911-7.62615 258.82 2.43183C261.73 12.4899 262.874 22.0407 262.054 31.1768C261.234 40.3127 258.494 48.769 253.841 56.6327C249.189 64.4971 242.67 71.3192 234.33 77.1089C224.284 84.0826 213.565 87.8309 202.146 88.1736C190.728 88.517 178.454 84.4397 165.368 76.1097L127.668 134.703C145.62 144.781 163.521 150.606 181.272 151.975Z" fill="#000000" fill-rule="nonzero" opacity="1" stroke="none"/>
<path d="M186.995 18.219L79.3857 99.1832L61.3744 75.2444L168.984-5.71978L186.995 18.219Z" fill="#fffffe" fill-rule="nonzero" opacity="1" stroke="none"/>
<path d="M59.5995 69.0356L42.4293 80.8563L60.735 107.439L77.9016 95.618L59.5995 69.0356ZM195.758-8.74982L159.771-15.3859C158.707-15.582 157.614-15.3494 156.728-14.7356L46.1293 61.4249L60.805 82.7366L164.3 11.4681C166.151 10.1929 168.678 10.6589 169.954 12.5107C171.229 14.3624 170.763 16.8896 168.911 18.1647L65.4164 89.4333L80.0922 110.745L190.691 34.5846C191.58 33.9754 192.188 33.0332 192.384 31.9736L199.02-4.01388C199.427-6.22111 197.97-8.34207 195.758-8.74982Z" fill="#000000" fill-rule="nonzero" opacity="1" stroke="none"/>
</g>
<g opacity="1">
<path d="M540.442 868.556L554.467 858.896L598.87 923.367L584.844 933.026L540.442 868.556Z" fill="#000000" fill-rule="nonzero" opacity="1" stroke="none"/>
<path d="M688.808 962.614C694.725 963.07 700.64 963.046 706.535 962.535C730.114 960.49 753.032 951.625 775.397 936.097C792.644 924.123 806.351 910.536 816.561 895.302C826.771 880.069 833.43 864.052 836.538 847.288C839.646 830.524 839.073 813.336 834.802 795.655C830.532 777.975 822.627 760.803 811.048 744.124C799.337 727.256 785.859 713.762 770.691 703.647C755.523 693.532 739.551 686.893 722.787 683.784C706.022 680.676 688.944 681.144 671.387 685.187C653.83 689.231 636.654 697.026 619.976 708.605C607.846 717.026 597.325 726.631 588.437 737.296C579.55 747.96 572.575 759.351 567.395 771.514C562.216 783.676 559.183 796.463 558.347 809.823C557.511 823.184 559.009 836.84 562.792 850.787C564.091 855.595 565.722 860.417 567.682 865.228L629.314 822.832C626.379 816.481 624.623 810.403 624.277 804.662C623.904 798.46 624.852 792.571 627.02 786.994C629.187 781.417 632.343 776.173 636.606 771.389C640.869 766.604 645.833 762.305 651.329 758.49C660.616 752.042 669.836 748.056 679.02 746.314C688.204 744.573 697.073 744.819 705.759 747.216C714.445 749.612 722.676 753.916 730.44 760.041C738.205 766.167 745.322 773.744 751.638 782.842C758.612 792.887 763.447 803.012 766.356 813.07C769.266 823.128 770.41 832.679 769.59 841.815C768.77 850.951 766.03 859.407 761.377 867.271C756.725 875.135 750.206 881.957 741.866 887.747C731.821 894.721 721.102 898.469 709.682 898.812C698.264 899.155 685.99 895.078 672.904 886.748L635.205 945.341C653.156 955.419 671.057 961.244 688.808 962.614Z" fill="#000000" fill-rule="nonzero" opacity="1" stroke="none"/>
<path d="M694.531 828.857L586.922 909.821L568.911 885.883L676.52 804.918L694.531 828.857Z" fill="#fffffe" fill-rule="nonzero" opacity="1" stroke="none"/>
<path d="M567.136 879.674L549.966 891.494L568.271 918.078L585.438 906.256L567.136 879.674ZM703.295 801.888L667.307 795.252C666.243 795.056 665.15 795.289 664.264 795.903L553.666 872.063L568.341 893.375L671.836 822.106C673.688 820.831 676.215 821.297 677.49 823.149C678.765 825.001 678.299 827.528 676.447 828.803L572.953 900.071L587.628 921.383L698.227 845.223C699.117 844.614 699.724 843.671 699.92 842.612L706.556 806.624C706.963 804.417 705.506 802.296 703.295 801.888Z" fill="#000000" fill-rule="nonzero" opacity="1" stroke="none"/>
</g>
<g opacity="1">
<path d="M665.657 523.517L679.683 513.858L724.085 578.328L710.06 587.988L665.657 523.517Z" fill="#000000" fill-rule="nonzero" opacity="1" stroke="none"/>
<path d="M814.024 617.575C819.941 618.032 825.856 618.008 831.751 617.497C855.33 615.452 878.247 606.586 900.612 591.059C917.86 579.085 931.567 565.498 941.776 550.264C951.986 535.03 958.646 519.014 961.754 502.25C964.862 485.485 964.288 468.298 960.018 450.617C955.748 432.937 947.843 415.764 936.264 399.086C924.552 382.218 911.075 368.724 895.906 358.609C880.738 348.494 864.766 341.854 848.002 338.746C831.238 335.638 814.16 336.106 796.603 340.149C779.045 344.192 761.87 351.987 745.191 363.567C733.061 371.988 722.54 381.592 713.653 392.258C704.765 402.922 697.79 414.313 692.611 426.476C687.431 438.638 684.399 451.424 683.563 464.785C682.727 478.145 684.224 491.802 688.007 505.748C689.306 510.557 690.938 515.378 692.897 520.19L754.53 477.794C751.595 471.443 749.838 465.364 749.493 459.623C749.12 453.422 750.068 447.533 752.236 441.956C754.402 436.378 757.559 431.135 761.822 426.351C766.084 421.566 771.048 417.267 776.545 413.451C785.831 407.004 795.052 403.017 804.236 401.276C813.419 399.535 822.288 399.781 830.974 402.177C839.66 404.573 847.892 408.877 855.656 415.003C863.42 421.129 870.537 428.706 876.853 437.803C883.827 447.849 888.663 457.974 891.572 468.032C894.482 478.09 895.625 487.641 894.806 496.777C893.986 505.913 891.246 514.369 886.593 522.233C881.941 530.097 875.422 536.919 867.082 542.709C857.036 549.683 846.317 553.431 834.898 553.773C823.479 554.117 811.206 550.04 798.12 541.71L760.42 600.303C778.372 610.381 796.272 616.206 814.024 617.575Z" fill="#000000" fill-rule="nonzero" opacity="1" stroke="none"/>
<path d="M819.747 483.819L712.137 564.783L694.126 540.844L801.735 459.88L819.747 483.819Z" fill="#fffffe" fill-rule="nonzero" opacity="1" stroke="none"/>
<path d="M692.351 534.636L675.181 546.456L693.487 573.039L710.653 561.218L692.351 534.636ZM828.51 456.85L792.523 450.214C791.459 450.018 790.366 450.25 789.48 450.864L678.881 527.025L693.557 548.337L797.051 477.068C798.903 475.793 801.43 476.259 802.705 478.111C803.981 479.962 803.515 482.489 801.663 483.765L698.168 555.033L712.844 576.345L823.442 500.184C824.332 499.575 824.94 498.633 825.135 497.573L831.771 461.586C832.178 459.379 830.721 457.258 828.51 456.85Z" fill="#000000" fill-rule="nonzero" opacity="1" stroke="none"/>
</g>
<g opacity="1">
<path d="M1651.09-50.9445L1665.12-60.6041L1709.52 3.86668L1695.5 13.5262L1651.09-50.9445Z" fill="#000000" fill-rule="nonzero" opacity="1" stroke="none"/>
<path d="M1799.46 43.1134C1805.38 43.5699 1811.29 43.546 1817.19 43.0348C1840.77 40.9899 1863.68 32.1246 1886.05 16.5969C1903.3 4.6228 1917-8.96368 1927.21-24.1977C1937.42-39.4313 1944.08-55.4482 1947.19-72.2121C1950.3-88.9764 1949.72-106.164 1945.45-123.845C1941.18-141.525 1933.28-158.698 1921.7-175.376C1909.99-192.244 1896.51-205.738 1881.34-215.853C1866.17-225.968 1850.2-232.608 1833.44-235.716C1816.67-238.824 1799.6-238.356 1782.04-234.313C1764.48-230.269 1747.31-222.475 1730.63-210.895C1718.5-202.474 1707.98-192.869 1699.09-182.204C1690.2-171.54 1683.23-160.149 1678.05-147.986C1672.87-135.824 1669.83-123.037 1669-109.677C1668.16-96.3164 1669.66-82.6598 1673.44-68.7134C1674.74-63.9047 1676.37-59.0833 1678.33-54.2721L1739.97-96.6682C1737.03-103.019 1735.27-109.097 1734.93-114.838C1734.56-121.04 1735.5-126.929 1737.67-132.506C1739.84-138.083 1743-143.327 1747.26-148.111C1751.52-152.896 1756.48-157.195 1761.98-161.011C1771.27-167.458 1780.49-171.444 1789.67-173.186C1798.86-174.927 1807.72-174.681 1816.41-172.285C1825.1-169.888 1833.33-165.584 1841.09-159.459C1848.86-153.333 1855.97-145.756 1862.29-136.659C1869.26-126.613 1874.1-116.488 1877.01-106.43C1879.92-96.372 1881.06-86.8212 1880.24-77.6851C1879.42-68.5492 1876.68-60.0929 1872.03-52.2292C1867.38-44.3648 1860.86-37.5427 1852.52-31.753C1842.47-24.7793 1831.75-21.031 1820.33-20.6883C1808.92-20.3449 1796.64-24.4221 1783.56-32.7522L1745.86 25.8408C1763.81 35.919 1781.71 41.7441 1799.46 43.1134Z" fill="#000000" fill-rule="nonzero" opacity="1" stroke="none"/>
<path d="M1805.18-90.6429L1697.57-9.67873L1679.56-33.6175L1787.17-114.582L1805.18-90.6429Z" fill="#fffffe" fill-rule="nonzero" opacity="1" stroke="none"/>
<path d="M1677.79-39.8263L1660.62-28.0056L1678.92-1.42256L1696.09-13.2439L1677.79-39.8263ZM1813.95-117.612L1777.96-124.248C1776.9-124.444 1775.8-124.211 1774.92-123.597L1664.32-47.437L1678.99-26.1253L1782.49-97.3938C1784.34-98.669 1786.87-98.203 1788.14-96.3512C1789.42-94.4995 1788.95-91.9723 1787.1-90.6972L1683.6-19.4286L1698.28 1.88311L1808.88-74.2773C1809.77-74.8864 1810.38-75.8287 1810.57-76.8883L1817.21-112.876C1817.61-115.083 1816.16-117.204 1813.95-117.612Z" fill="#000000" fill-rule="nonzero" opacity="1" stroke="none"/>
</g>
<g opacity="1">
<path d="M402.313 127.804L416.338 118.145L460.741 182.616L446.715 192.275L402.313 127.804Z" fill="#000000" fill-rule="nonzero" opacity="1" stroke="none"/>
<path d="M550.679 221.862C556.596 222.319 562.511 222.295 568.406 221.784C591.986 219.739 614.903 210.874 637.268 195.346C654.516 183.372 668.222 169.785 678.432 154.551C688.642 139.318 695.302 123.301 698.41 106.537C701.518 89.7725 700.944 72.5851 696.673 54.9043C692.404 37.2237 684.499 20.0514 672.919 3.37314C661.208-13.4953 647.73-26.9888 632.562-37.1043C617.394-47.2189 601.422-53.8586 584.658-56.9667C567.894-60.0749 550.815-59.607 533.258-55.5642C515.701-51.5204 498.525-43.7256 481.847-32.1462C469.717-23.7248 459.196-14.1205 450.308-3.45535C441.421 7.20908 434.446 18.6 429.266 30.7627C424.087 42.9253 421.054 55.7116 420.218 69.0717C419.382 82.4325 420.88 96.0891 424.663 110.036C425.962 114.844 427.594 119.666 429.553 124.477L491.186 82.0807C488.251 75.7301 486.494 69.6516 486.149 63.9105C485.776 57.7092 486.723 51.82 488.891 46.2427C491.058 40.6656 494.215 35.4223 498.477 30.6382C502.74 25.8533 507.704 21.5537 513.2 17.7384C522.487 11.2906 531.708 7.30454 540.891 5.56315C550.075 3.82197 558.944 4.06805 567.63 6.4644C576.316 8.86051 584.547 13.1645 592.311 19.2899C600.076 25.4161 607.193 32.9927 613.509 42.0903C620.483 52.1357 625.318 62.2609 628.227 72.3189C631.137 82.3769 632.281 91.9277 631.461 101.064C630.642 110.2 627.901 118.656 623.248 126.52C618.596 134.384 612.078 141.206 603.737 146.996C593.692 153.97 582.973 157.718 571.553 158.061C560.135 158.404 547.862 154.327 534.776 145.997L497.076 204.59C515.027 214.668 532.928 220.493 550.679 221.862Z" fill="#000000" fill-rule="nonzero" opacity="1" stroke="none"/>
<path d="M556.402 88.106L448.793 169.07L430.782 145.131L538.391 64.1673L556.402 88.106Z" fill="#fffffe" fill-rule="nonzero" opacity="1" stroke="none"/>
<path d="M429.007 138.923L411.837 150.743L430.142 177.326L447.309 165.505L429.007 138.923ZM565.166 61.1372L529.178 54.5012C528.115 54.3051 527.022 54.5376 526.135 55.1515L415.537 131.312L430.212 152.624L533.707 81.3551C535.559 80.08 538.086 80.546 539.361 82.3977C540.636 84.2495 540.17 86.7766 538.318 88.0518L434.824 159.32L449.5 180.632L560.098 104.472C560.988 103.862 561.596 102.92 561.791 101.861L568.427 65.8732C568.834 63.6659 567.377 61.545 565.166 61.1372Z" fill="#000000" fill-rule="nonzero" opacity="1" stroke="none"/>
</g>
<g opacity="1">
<path d="M909.849 938.443L923.874 928.783L968.277 993.254L954.252 1002.91L909.849 938.443Z" fill="#000000" fill-rule="nonzero" opacity="1" stroke="none"/>
<path d="M1058.22 1032.5C1064.13 1032.96 1070.05 1032.93 1075.94 1032.42C1099.52 1030.38 1122.44 1021.51 1144.8 1005.98C1162.05 994.01 1175.76 980.423 1185.97 965.189C1196.18 949.956 1202.84 933.939 1205.95 917.175C1209.05 900.411 1208.48 883.223 1204.21 865.543C1199.94 847.862 1192.03 830.69 1180.46 814.011C1168.74 797.143 1155.27 783.649 1140.1 773.534C1124.93 763.419 1108.96 756.78 1092.19 753.672C1075.43 750.563 1058.35 751.031 1040.79 755.074C1023.24 759.118 1006.06 766.913 989.383 778.492C977.253 786.913 966.732 796.518 957.845 807.183C948.957 817.847 941.982 829.238 936.802 841.401C931.623 853.563 928.591 866.35 927.755 879.71C926.919 893.071 928.416 906.727 932.199 920.674C933.498 925.482 935.13 930.304 937.089 935.115L998.722 892.719C995.787 886.368 994.03 880.29 993.685 874.549C993.312 868.347 994.26 862.458 996.427 856.881C998.594 851.304 1001.75 846.06 1006.01 841.276C1010.28 836.492 1015.24 832.192 1020.74 828.377C1030.02 821.929 1039.24 817.943 1048.43 816.201C1057.61 814.46 1066.48 814.706 1075.17 817.103C1083.85 819.499 1092.08 823.803 1099.85 829.928C1107.61 836.054 1114.73 843.631 1121.05 852.729C1128.02 862.774 1132.85 872.899 1135.76 882.957C1138.67 893.015 1139.82 902.566 1139 911.702C1138.18 920.838 1135.44 929.294 1130.78 937.158C1126.13 945.022 1119.61 951.844 1111.27 957.634C1101.23 964.608 1090.51 968.356 1079.09 968.699C1067.67 969.042 1055.4 964.965 1042.31 956.635L1004.61 1015.23C1022.56 1025.31 1040.46 1031.13 1058.22 1032.5Z" fill="#000000" fill-rule="nonzero" opacity="1" stroke="none"/>
<path d="M1063.94 898.744L956.329 979.708L938.318 955.77L1045.93 874.805L1063.94 898.744Z" fill="#fffffe" fill-rule="nonzero" opacity="1" stroke="none"/>
<path d="M936.543 949.561L919.373 961.382L937.679 987.965L954.845 976.143L936.543 949.561ZM1072.7 871.775L1036.71 865.139C1035.65 864.943 1034.56 865.176 1033.67 865.79L923.073 941.95L937.749 963.262L1041.24 891.993C1043.09 890.718 1045.62 891.184 1046.9 893.036C1048.17 894.888 1047.71 897.415 1045.85 898.69L942.36 969.959L957.036 991.27L1067.63 915.11C1068.52 914.501 1069.13 913.558 1069.33 912.499L1075.96 876.511C1076.37 874.304 1074.91 872.183 1072.7 871.775Z" fill="#000000" fill-rule="nonzero" opacity="1" stroke="none"/>
</g>
<g opacity="1">
<path d="M174.656 809.513L188.682 799.853L233.084 864.324L219.059 873.984L174.656 809.513Z" fill="#000000" fill-rule="nonzero" opacity="1" stroke="none"/>
<path d="M323.023 903.571C328.94 904.027 334.855 904.003 340.75 903.492C364.329 901.447 387.246 892.582 409.611 877.054C426.859 865.08 440.566 851.494 450.775 836.26C460.985 821.026 467.645 805.009 470.753 788.245C473.861 771.481 473.287 754.293 469.017 736.613C464.747 718.932 456.842 701.76 445.262 685.081C433.551 668.213 420.074 654.72 404.905 644.604C389.737 634.489 373.765 627.85 357.001 624.742C340.237 621.633 323.159 622.101 305.601 626.144C288.044 630.188 270.868 637.983 254.19 649.562C242.06 657.984 231.539 667.588 222.652 678.253C213.764 688.917 206.789 700.308 201.609 712.471C196.43 724.634 193.398 737.42 192.562 750.78C191.726 764.141 193.223 777.797 197.006 791.744C198.305 796.553 199.937 801.374 201.896 806.185L263.529 763.789C260.594 757.438 258.837 751.36 258.492 745.619C258.119 739.418 259.067 733.528 261.234 727.951C263.401 722.374 266.558 717.131 270.821 712.346C275.083 707.562 280.047 703.262 285.543 699.447C294.83 692.999 304.051 689.013 313.235 687.271C322.418 685.53 331.287 685.776 339.973 688.173C348.659 690.569 356.89 694.873 364.655 700.998C372.419 707.124 379.536 714.701 385.852 723.799C392.826 733.844 397.661 743.969 400.571 754.027C403.481 764.085 404.624 773.636 403.805 782.772C402.985 791.908 400.245 800.364 395.592 808.228C390.94 816.093 384.421 822.915 376.081 828.704C366.035 835.678 355.316 839.426 343.897 839.769C332.478 840.112 320.205 836.035 307.119 827.705L269.419 886.298C287.371 896.376 305.271 902.201 323.023 903.571Z" fill="#000000" fill-rule="nonzero" opacity="1" stroke="none"/>
<path d="M328.745 769.814L221.136 850.779L203.125 826.84L310.734 745.876L328.745 769.814Z" fill="#fffffe" fill-rule="nonzero" opacity="1" stroke="none"/>
<path d="M201.35 820.631L184.18 832.452L202.486 859.035L219.652 847.213L201.35 820.631ZM337.509 742.846L301.521 736.21C300.458 736.013 299.365 736.246 298.478 736.86L187.88 813.02L202.556 834.332L306.05 763.063C307.902 761.788 310.429 762.254 311.704 764.106C312.979 765.958 312.513 768.485 310.662 769.76L207.167 841.029L221.843 862.34L332.441 786.18C333.331 785.571 333.939 784.629 334.134 783.569L340.77 747.582C341.177 745.374 339.72 743.253 337.509 742.846Z" fill="#000000" fill-rule="nonzero" opacity="1" stroke="none"/>
</g>
<g opacity="1">
<path d="M-196.106 765.396L-182.081 755.736L-137.679 820.207L-151.704 829.866L-196.106 765.396Z" fill="#000000" fill-rule="nonzero" opacity="1" stroke="none"/>
<path d="M-47.7401 859.454C-41.823 859.91-35.9079 859.886-30.0129 859.375C-6.43384 857.33 16.4835 848.465 38.8486 832.937C56.0963 820.963 69.8031 807.376 80.0127 792.142C90.2223 776.909 96.8822 760.892 99.9903 744.128C103.098 727.364 102.524 710.176 98.254 692.495C93.9842 674.815 86.0792 657.643 74.4998 640.964C62.7886 624.096 49.311 610.602 34.1424 600.487C18.9744 590.372 3.00243 583.733-13.7615 580.624C-30.5258 577.516-47.604 577.984-65.1612 582.027C-82.7182 586.071-99.8941 593.866-116.572 605.445C-128.703 613.866-139.223 623.471-148.111 634.136C-156.999 644.8-163.973 656.191-169.153 668.354C-174.332 680.516-177.365 693.303-178.201 706.663C-179.037 720.024-177.54 733.68-173.756 747.627C-172.457 752.435-170.826 757.257-168.867 762.068L-107.234 719.672C-110.169 713.321-111.925 707.243-112.271 701.502C-112.644 695.3-111.696 689.411-109.528 683.834C-107.361 678.257-104.205 673.013-99.942 668.229C-95.6796 663.444-90.7156 659.145-85.2192 655.33C-75.9323 648.882-66.7118 644.896-57.528 643.154C-48.3442 641.413-39.4752 641.659-30.7893 644.056C-22.1035 646.452-13.8722 650.756-6.10795 656.881C1.65656 663.007 8.77345 670.584 15.0894 679.682C22.0634 689.727 26.8988 699.852 29.8081 709.91C32.7179 719.968 33.8618 729.519 33.042 738.655C32.2222 747.791 29.482 756.247 24.8291 764.111C20.1771 771.975 13.6582 778.797 5.31801 784.587C-4.72753 791.561-15.4467 795.309-26.8659 795.652C-38.2844 795.995-50.5578 791.918-63.6437 783.588L-101.344 842.181C-83.3921 852.259-65.4914 858.084-47.7401 859.454Z" fill="#000000" fill-rule="nonzero" opacity="1" stroke="none"/>
<path d="M-42.0172 725.697L-149.626 806.661L-167.638 782.723L-60.0285 701.758L-42.0172 725.697Z" fill="#fffffe" fill-rule="nonzero" opacity="1" stroke="none"/>
<path d="M-169.412 776.514L-186.583 788.334L-168.277 814.918L-151.11 803.096L-169.412 776.514ZM-33.2536 698.728L-69.2411 692.092C-70.3047 691.896-71.3978 692.129-72.2842 692.743L-182.883 768.903L-168.207 790.215L-64.7124 718.946C-62.8606 717.671-60.3335 718.137-59.0583 719.989C-57.7832 721.841-58.2492 724.368-60.1009 725.643L-163.596 796.911L-148.92 818.223L-38.3213 742.063C-37.4317 741.454-36.8238 740.511-36.6284 739.452L-29.9924 703.464C-29.5854 701.257-31.0424 699.136-33.2536 698.728Z" fill="#000000" fill-rule="nonzero" opacity="1" stroke="none"/>
</g>
<g opacity="1">
<path d="M1160.09 235.051L1174.12 225.391L1218.52 289.862L1204.49 299.522L1160.09 235.051Z" fill="#000000" fill-rule="nonzero" opacity="1" stroke="none"/>
<path d="M1308.46 329.109C1314.38 329.565 1320.29 329.541 1326.19 329.03C1349.77 326.985 1372.68 318.12 1395.05 302.592C1412.3 290.618 1426 277.032 1436.21 261.798C1446.42 246.564 1453.08 230.547 1456.19 213.783C1459.3 197.019 1458.72 179.832 1454.45 162.151C1450.18 144.47 1442.28 127.298 1430.7 110.62C1418.99 93.7513 1405.51 80.2577 1390.34 70.1422C1375.17 60.0277 1359.2 53.388 1342.44 50.2799C1325.67 47.1717 1308.59 47.6395 1291.04 51.6823C1273.48 55.7261 1256.3 63.5209 1239.63 75.1003C1227.5 83.5217 1216.98 93.126 1208.09 103.791C1199.2 114.456 1192.23 125.847 1187.05 138.009C1181.87 150.172 1178.83 162.958 1178 176.318C1177.16 189.679 1178.66 203.336 1182.44 217.282C1183.74 222.091 1185.37 226.912 1187.33 231.723L1248.97 189.327C1246.03 182.977 1244.27 176.898 1243.93 171.157C1243.56 164.956 1244.5 159.067 1246.67 153.489C1248.84 147.912 1251.99 142.669 1256.26 137.885C1260.52 133.1 1265.48 128.8 1270.98 124.985C1280.27 118.537 1289.49 114.551 1298.67 112.81C1307.85 111.069 1316.72 111.315 1325.41 113.711C1334.1 116.107 1342.33 120.411 1350.09 126.536C1357.86 132.663 1364.97 140.239 1371.29 149.337C1378.26 159.382 1383.1 169.507 1386.01 179.565C1388.92 189.623 1390.06 199.174 1389.24 208.31C1388.42 217.446 1385.68 225.903 1381.03 233.766C1376.38 241.631 1369.86 248.453 1361.52 254.243C1351.47 261.216 1340.75 264.964 1329.33 265.307C1317.91 265.651 1305.64 261.573 1292.56 253.243L1254.86 311.836C1272.81 321.914 1290.71 327.74 1308.46 329.109Z" fill="#000000" fill-rule="nonzero" opacity="1" stroke="none"/>
<path d="M1314.18 195.353L1206.57 276.317L1188.56 252.378L1296.17 171.414L1314.18 195.353Z" fill="#fffffe" fill-rule="nonzero" opacity="1" stroke="none"/>
<path d="M1186.79 246.169L1169.62 257.99L1187.92 284.573L1205.09 272.752L1186.79 246.169ZM1322.95 168.384L1286.96 161.748C1285.89 161.552 1284.8 161.784 1283.91 162.398L1173.32 238.558L1187.99 259.87L1291.49 188.602C1293.34 187.327 1295.87 187.793 1297.14 189.644C1298.42 191.496 1297.95 194.023 1296.1 195.298L1192.6 266.567L1207.28 287.879L1317.88 211.718C1318.77 211.109 1319.38 210.167 1319.57 209.107L1326.21 173.12C1326.61 170.912 1325.16 168.792 1322.95 168.384Z" fill="#000000" fill-rule="nonzero" opacity="1" stroke="none"/>
</g>
<g opacity="1">
<path d="M-88.6882 413.8L-74.6628 404.14L-30.2603 468.611L-44.2856 478.271L-88.6882 413.8Z" fill="#000000" fill-rule="nonzero" opacity="1" stroke="none"/>
<path d="M59.6782 507.858C65.5952 508.314 71.5104 508.29 77.4053 507.779C100.984 505.734 123.902 496.869 146.267 481.341C163.515 469.367 177.221 455.781 187.431 440.547C197.641 425.313 204.3 409.296 207.409 392.532C210.516 375.768 209.943 358.581 205.672 340.9C201.402 323.219 193.497 306.047 181.918 289.369C170.207 272.5 156.729 259.007 141.561 248.891C126.393 238.777 110.421 232.137 93.6567 229.029C76.8925 225.921 59.8142 226.388 42.2571 230.431C24.7 234.475 7.52413 242.27-9.15416 253.849C-21.2843 262.271-31.8051 271.875-40.6928 282.54C-49.5803 293.205-56.5552 304.596-61.7349 316.758C-66.914 328.921-69.9467 341.707-70.7827 355.067C-71.6188 368.428-70.1214 382.085-66.3381 396.031C-65.039 400.84-63.4076 405.661-61.4485 410.472L0.184444 368.076C-2.75058 361.726-4.50714 355.647-4.85255 349.906C-5.22555 343.705-4.27771 337.815-2.10992 332.238C0.0570118 326.661 3.21346 321.418 7.47629 316.634C11.7386 311.849 16.7026 307.549 22.1991 303.734C31.486 297.286 40.7065 293.3 49.8902 291.559C59.074 289.817 67.943 290.064 76.6289 292.46C85.3148 294.856 93.5461 299.16 101.31 305.285C109.075 311.412 116.192 318.988 122.508 328.086C129.482 338.131 134.317 348.256 137.226 358.314C140.136 368.372 141.28 377.923 140.46 387.059C139.64 396.195 136.9 404.652 132.247 412.515C127.595 420.38 121.076 427.202 112.736 432.991C102.691 439.965 91.9716 443.713 80.5524 444.056C69.1338 444.4 56.8605 440.322 43.7745 431.992L6.07466 490.585C24.0262 500.663 41.9269 506.489 59.6782 507.858Z" fill="#000000" fill-rule="nonzero" opacity="1" stroke="none"/>
<path d="M65.4011 374.101L-42.2081 455.066L-60.2194 431.127L47.3898 350.163L65.4011 374.101Z" fill="#fffffe" fill-rule="nonzero" opacity="1" stroke="none"/>
<path d="M-61.9942 424.918L-79.1644 436.739L-60.8587 463.322L-43.6921 451.501L-61.9942 424.918ZM74.1646 347.133L38.1771 340.497C37.1135 340.301 36.0205 340.533 35.1341 341.147L-75.4644 417.307L-60.7887 438.619L42.7059 367.351C44.5576 366.075 47.0848 366.541 48.3599 368.393C49.6351 370.245 49.1691 372.772 47.3173 374.047L-56.1773 445.316L-41.5016 466.628L69.097 390.467C69.9866 389.858 70.5945 388.916 70.7899 387.856L77.4259 351.869C77.8329 349.661 76.3758 347.54 74.1646 347.133Z" fill="#000000" fill-rule="nonzero" opacity="1" stroke="none"/>
</g>
<g opacity="1">
<path d="M896.748-160.662L910.773-170.321L955.176-105.851L941.151-96.1911L896.748-160.662Z" fill="#000000" fill-rule="nonzero" opacity="1" stroke="none"/>
<path d="M1045.11-66.6039C1051.03-66.1475 1056.95-66.1714 1062.84-66.6826C1086.42-68.7275 1109.34-77.5928 1131.7-93.1205C1148.95-105.095 1162.66-118.681 1172.87-133.915C1183.08-149.149 1189.74-165.166 1192.84-181.93C1195.95-198.694 1195.38-215.881 1191.11-233.562C1186.84-251.243 1178.93-268.415 1167.35-285.093C1155.64-301.962 1142.17-315.455 1127-325.571C1111.83-335.685 1095.86-342.325 1079.09-345.433C1062.33-348.541 1045.25-348.073 1027.69-344.031C1010.14-339.987 992.96-332.192 976.282-320.613C964.152-312.191 953.631-302.587 944.743-291.922C935.856-281.257 928.881-269.866 923.701-257.704C918.522-245.541 915.49-232.755 914.654-219.395C913.817-206.034 915.315-192.377 919.098-178.431C920.397-173.622 922.029-168.801 923.988-163.989L985.621-206.386C982.686-212.736 980.929-218.815 980.584-224.556C980.211-230.757 981.159-236.646 983.326-242.224C985.493-247.801 988.65-253.044 992.913-257.828C997.175-262.613 1002.14-266.913 1007.64-270.728C1016.92-277.176 1026.14-281.162 1035.33-282.903C1044.51-284.644 1053.38-284.398 1062.07-282.002C1070.75-279.606 1078.98-275.302 1086.75-269.176C1094.51-263.05 1101.63-255.474 1107.94-246.376C1114.92-236.331 1119.75-226.205 1122.66-216.147C1125.57-206.089 1126.72-196.539 1125.9-187.402C1125.08-178.267 1122.34-169.81 1117.68-161.947C1113.03-154.082 1106.51-147.26 1098.17-141.47C1088.13-134.497 1077.41-130.748 1065.99-130.406C1054.57-130.062 1042.3-134.14 1029.21-142.47L991.511-83.8766C1009.46-73.7984 1027.36-67.9732 1045.11-66.6039Z" fill="#000000" fill-rule="nonzero" opacity="1" stroke="none"/>
<path d="M1050.84-200.36L943.228-119.396L925.217-143.335L1032.83-224.299L1050.84-200.36Z" fill="#fffffe" fill-rule="nonzero" opacity="1" stroke="none"/>
<path d="M923.442-149.544L906.272-137.723L924.577-111.14L941.744-122.961L923.442-149.544ZM1059.6-227.329L1023.61-233.965C1022.55-234.161 1021.46-233.929 1020.57-233.315L909.972-157.154L924.648-135.843L1028.14-207.111C1029.99-208.386 1032.52-207.92 1033.8-206.069C1035.07-204.217 1034.61-201.69 1032.75-200.415L929.259-129.146L943.935-107.834L1054.53-183.995C1055.42-184.604 1056.03-185.546 1056.23-186.606L1062.86-222.593C1063.27-224.8 1061.81-226.921 1059.6-227.329Z" fill="#000000" fill-rule="nonzero" opacity="1" stroke="none"/>
</g>
</g>
<g id="Layer-2" vectornator:layerName="Layer 2"/>
</svg>
